<?xml version="1.0" standalone="no"?>
<!DOCTYPE svg PUBLIC "-//W3C//DTD SVG 20010904//EN"
 "http://www.w3.org/TR/2001/REC-SVG-20010904/DTD/svg10.dtd">
<svg version="1.0" xmlns="http://www.w3.org/2000/svg"
 width="1038.000000pt" height="1174.000000pt" viewBox="0 0 1038.000000 1174.000000"
 preserveAspectRatio="xMidYMid meet">

<g transform="translate(0.000000,1174.000000) scale(0.100000,-0.100000)"
fill="#000000" stroke="none">
<path d="M0 5870 l0 -5870 2671 0 2671 0 -69 128 c-77 145 -123 238 -123 249
0 5 5 1 10 -8 9 -16 42 -19 49 -5 3 7 -108 158 -161 217 -40 45 -87 127 -189
325 -56 110 -148 278 -204 374 -56 96 -148 258 -205 360 -57 102 -115 205
-130 230 -15 25 -53 95 -85 155 -32 61 -92 169 -135 240 -42 72 -108 189 -145
260 -37 72 -78 149 -91 172 -13 24 -19 43 -13 43 5 0 -3 19 -19 43 -16 23 -32
52 -36 64 -4 11 -26 50 -49 85 -23 34 -46 70 -52 79 -5 9 -36 55 -67 103 -32
47 -58 89 -58 93 0 3 -6 14 -14 22 -8 9 -39 61 -69 116 -30 55 -69 125 -86
155 -17 30 -45 84 -62 120 -17 36 -38 77 -45 92 -8 14 -14 38 -14 53 0 15 -4
24 -10 20 -14 -8 -1 25 21 53 10 13 15 30 12 38 -3 8 0 14 6 14 6 0 11 5 11
11 0 5 -4 8 -9 4 -5 -3 -12 -1 -16 5 -3 5 -1 10 5 10 7 0 8 6 0 19 -15 29 -12
39 5 17 20 -26 19 -12 -1 19 -9 13 -13 29 -9 35 3 5 2 10 -4 10 -5 0 -8 11 -7
24 2 15 -3 27 -12 31 -11 4 -12 9 -4 17 8 8 7 19 -4 40 -8 15 -16 54 -19 86
-2 31 -6 68 -10 82 -4 19 -1 28 15 38 14 8 20 9 20 1 0 -6 17 -27 37 -45 27
-25 38 -43 39 -68 3 -51 50 -143 77 -150 23 -5 61 -58 50 -69 -3 -4 8 -22 25
-41 17 -19 34 -41 39 -48 4 -7 33 -35 63 -63 30 -27 75 -74 100 -104 55 -67
66 -80 106 -123 17 -18 34 -43 38 -55 4 -12 24 -32 44 -45 20 -12 91 -61 157
-109 103 -74 419 -279 429 -279 2 0 88 -51 190 -114 102 -63 186 -113 186
-111 0 6 -117 85 -125 85 -3 0 -38 24 -78 53 -40 29 -87 59 -104 66 -18 7 -33
17 -33 22 0 11 16 20 24 12 3 -4 22 -12 42 -19 29 -10 33 -10 23 2 -6 8 -8 14
-3 14 12 0 41 -20 30 -20 -5 0 -3 -6 3 -13 6 -8 8 -17 4 -21 -4 -4 0 -4 10 0
9 3 17 10 17 14 0 5 16 6 36 4 32 -4 35 -3 24 11 -16 19 -3 20 16 1 12 -13 11
-15 -6 -21 -11 -3 -20 -11 -20 -17 0 -7 5 -7 12 -1 22 16 70 34 63 23 -3 -5 1
-10 10 -10 10 0 13 -5 9 -12 -4 -7 -3 -8 5 -4 7 4 9 17 6 29 -6 21 -5 21 14
-2 16 -18 21 -19 21 -7 0 19 11 21 29 3 10 -10 11 -8 5 7 -6 15 -4 17 14 11
34 -10 31 -4 -34 67 -9 9 -13 21 -10 27 4 5 1 13 -5 17 -8 4 -9 3 -5 -4 4 -7
1 -12 -9 -12 -9 0 -13 5 -10 10 3 6 -1 13 -10 16 -13 6 -14 8 -3 15 10 7 10 9
1 9 -7 0 -13 5 -13 10 0 6 7 10 15 10 8 0 15 -5 15 -11 0 -6 6 -9 12 -7 7 3
19 -2 26 -9 8 -8 23 -11 34 -7 14 4 18 3 13 -6 -5 -8 0 -11 16 -8 15 2 23 -2
22 -9 -2 -9 4 -10 22 -3 30 11 31 8 7 -16 -19 -19 -21 -20 33 2 8 3 15 1 15
-5 0 -6 7 -11 15 -11 8 0 15 -6 15 -12 0 -10 3 -9 9 1 5 7 14 10 20 7 6 -4 9
-12 6 -17 -4 -5 6 -10 22 -10 15 -1 33 -2 38 -4 6 -1 23 -3 38 -3 16 -1 25 -6
22 -12 -3 -6 2 -10 12 -10 11 0 24 -5 31 -12 17 -17 15 -1 -5 28 l-16 25 29
-7 c35 -8 43 -14 21 -14 -9 0 -17 -4 -17 -10 0 -12 6 -13 29 -1 11 6 22 6 32
-1 11 -8 11 -9 -3 -4 -10 3 -18 1 -18 -4 0 -6 7 -10 15 -10 9 0 12 -6 8 -17
-4 -11 -3 -14 6 -9 7 5 10 14 7 21 -8 21 22 41 37 25 9 -10 9 -13 0 -17 -7 -3
-13 -9 -13 -14 0 -5 9 -4 20 3 17 11 18 14 4 29 -13 15 -13 17 1 23 9 3 13 2
10 -4 -3 -6 1 -10 10 -10 9 0 14 4 11 9 -3 5 2 15 11 22 12 10 14 10 9 2 -4
-8 -1 -13 8 -13 9 0 16 5 16 12 0 6 3 8 6 5 11 -10 -17 -38 -30 -30 -6 4 -5
-1 3 -10 15 -19 36 -23 25 -5 -5 8 -2 9 9 5 9 -3 18 -3 21 2 7 10 -29 63 -37
54 -4 -3 -7 -1 -7 7 0 10 -3 10 -17 -1 -15 -13 -16 -11 -9 16 3 17 3 26 -1 20
-10 -13 -45 -16 -37 -3 3 5 -4 16 -15 25 -16 11 -19 18 -12 27 8 9 7 13 -2 13
-16 0 -167 102 -167 113 0 5 5 12 11 16 8 5 7 10 -4 16 -9 5 -15 14 -13 21 1
6 1 9 -1 5 -9 -16 -25 -7 -19 9 4 10 4 14 1 11 -8 -7 -69 59 -71 76 0 6 -2 21
-2 34 -1 12 -9 22 -17 22 -8 0 -15 4 -15 10 0 5 -11 20 -25 34 -14 14 -22 31
-19 39 3 8 -2 20 -11 27 -8 7 -15 19 -15 27 0 8 -9 26 -19 39 -17 22 -20 23
-24 7 -4 -15 -5 -15 -6 2 0 11 -9 32 -18 45 -10 14 -17 26 -15 28 1 1 2 5 2 9
0 4 -7 -2 -15 -13 -13 -17 -14 -17 -15 -1 0 9 -5 17 -11 17 -5 0 -7 5 -4 10 3
6 1 10 -5 10 -6 0 -10 9 -8 19 2 11 -8 34 -22 53 -15 20 -24 44 -22 63 1 16
-1 24 -4 18 -9 -20 -24 -15 -17 4 3 10 3 15 -2 11 -6 -6 -56 13 -73 27 -1 1 2
14 7 28 5 14 7 27 4 31 -9 9 -41 -37 -36 -54 4 -12 3 -13 -5 -1 -11 16 -47 7
-37 -9 3 -5 -1 -10 -9 -10 -8 0 -21 -7 -30 -15 -8 -9 -18 -16 -21 -15 -3 0 -4
-3 -2 -7 1 -5 6 -7 10 -5 5 1 6 -2 2 -8 -10 -17 -25 -11 -35 13 -8 20 -9 21
-10 2 -1 -16 -4 -14 -12 8 -8 22 -13 26 -24 16 -11 -9 -14 -8 -14 4 0 8 -7 20
-15 27 -9 7 -13 15 -10 18 2 3 -4 12 -14 21 -10 9 -17 24 -15 34 1 9 -2 17 -7
17 -5 0 -17 17 -27 37 -9 21 -25 47 -34 57 -10 10 -15 23 -12 28 3 4 0 8 -5 8
-6 0 -11 6 -11 14 0 7 -7 26 -15 42 -11 21 -11 31 -3 42 6 7 7 12 2 11 -5 -1
-16 -1 -24 0 -12 1 -13 3 -1 10 10 7 8 14 -10 36 -13 14 -24 30 -23 33 0 4 -5
18 -12 31 -9 17 -10 30 -3 43 6 12 6 18 0 18 -6 0 -14 12 -17 28 -4 15 -18 51
-31 80 -12 28 -23 62 -23 75 0 12 -1 32 -1 45 0 12 -7 34 -14 50 -9 16 -11 28
-5 30 6 2 8 8 5 13 -12 19 -14 123 -3 130 9 6 8 12 -2 24 -9 11 -10 19 -2 27
6 6 8 17 5 26 -4 10 -2 13 5 8 20 -12 33 3 22 24 -7 13 -5 29 5 54 21 49 35
158 23 173 -6 8 -2 13 12 18 15 5 18 10 11 19 -7 9 -7 16 1 24 8 8 7 13 -5 18
-19 7 -22 36 -6 65 7 14 7 24 0 33 -8 10 -6 18 9 31 23 21 28 44 5 25 -9 -7
-18 -10 -22 -6 -3 3 -1 6 6 6 7 0 9 5 5 12 -9 15 -12 138 -3 138 3 0 6 7 6 15
0 18 -13 20 -20 3 -4 -9 -6 -10 -6 -1 -1 6 6 18 14 27 17 17 20 30 5 21 -13
-8 -13 11 1 37 8 15 8 22 -1 28 -7 4 -9 13 -5 20 5 8 4 11 -3 7 -5 -4 -1 12
10 35 20 41 31 124 21 160 -2 11 -10 15 -21 11 -11 -4 -8 2 8 17 17 16 19 21
8 17 -19 -7 -25 8 -8 18 6 3 10 12 10 18 0 7 -11 -1 -24 -18 -23 -29 -23 -29
-30 -7 -4 12 -12 22 -17 22 -5 0 -8 3 -8 8 3 20 -2 31 -15 26 -19 -7 -28 34
-13 60 7 12 12 34 12 49 l1 28 -18 -23 c-22 -29 -23 -17 -2 23 8 17 13 34 10
37 -4 3 6 19 21 35 24 25 25 28 6 18 -12 -6 -25 -16 -28 -21 -3 -6 -14 -10
-24 -10 -10 0 -24 -7 -31 -15 -7 -8 -18 -15 -24 -15 -6 0 -4 5 4 11 11 8 12
12 2 16 -6 2 -9 9 -6 15 4 7 9 6 13 -1 5 -8 13 -6 27 5 10 8 14 13 8 10 -7 -3
-15 1 -18 10 -3 8 -2 12 4 9 6 -3 20 1 32 9 16 11 25 13 35 4 7 -6 13 -6 13
-2 0 5 9 15 21 22 12 8 19 10 16 5 -3 -5 14 -10 38 -11 24 -1 47 3 50 8 4 7
13 6 26 0 14 -8 19 -7 19 1 0 7 2 10 5 7 3 -3 3 -12 0 -21 -5 -11 -16 -14 -44
-10 -21 3 -41 1 -44 -4 -4 -6 21 -9 59 -9 44 0 63 4 60 12 -2 6 7 17 20 23 32
14 34 14 28 -2 -3 -8 1 -14 8 -14 7 0 24 -3 37 -7 16 -6 21 -5 17 2 -6 11 68
7 86 -4 4 -3 5 2 2 10 -7 18 11 22 21 5 5 -7 15 -5 30 5 25 16 74 12 88 -7 6
-8 7 -6 3 6 -4 13 0 17 18 17 14 0 32 -3 40 -6 14 -5 14 -9 4 -22 -12 -13 -11
-14 9 -2 12 8 19 19 15 25 -3 5 1 4 10 -2 8 -7 18 -10 22 -6 3 4 13 -2 20 -13
14 -18 15 -18 33 -2 60 56 63 58 63 43 0 -17 35 -21 45 -5 9 14 75 8 75 -7 0
-7 7 -13 16 -13 11 0 15 -8 14 -27 -3 -42 1 -51 10 -23 8 21 8 20 5 -10 -4
-48 -4 -47 -15 -30 -6 9 -10 10 -10 3 0 -6 5 -15 10 -18 6 -4 8 -11 4 -16 -3
-5 0 -16 6 -24 9 -11 9 -15 1 -15 -6 0 -11 4 -11 8 0 5 -7 17 -15 28 -8 10 -3
-9 10 -43 30 -75 30 -72 5 -66 -16 4 -19 2 -14 -11 3 -9 11 -13 18 -9 6 3 8 3
4 -2 -4 -4 -3 -14 3 -22 8 -9 8 -13 1 -13 -7 0 -9 -7 -5 -17 4 -9 2 -14 -3
-10 -11 6 -11 -33 0 -51 4 -7 1 -12 -9 -12 -12 0 -14 -4 -6 -19 9 -16 7 -18
-15 -15 -14 1 -23 0 -20 -3 3 -4 1 -12 -5 -20 -6 -7 -8 -13 -4 -13 4 0 14 8
22 18 12 15 13 14 1 -8 -7 -14 -11 -28 -10 -32 1 -4 -4 -5 -12 -2 -8 3 -16 -3
-19 -15 -3 -12 -13 -21 -22 -21 -9 0 -14 -4 -11 -9 3 -5 -8 -14 -24 -21 -32
-13 -42 -33 -12 -25 9 3 5 -1 -10 -8 -22 -10 -25 -16 -16 -25 9 -9 9 -12 -1
-12 -8 0 -11 -6 -7 -15 3 -8 0 -14 -7 -12 -7 1 -12 -8 -12 -20 0 -12 -5 -26
-9 -30 -5 -5 -6 -2 -1 7 5 8 4 12 0 7 -5 -4 -10 -15 -11 -23 -1 -9 -10 -31
-19 -50 -9 -19 -14 -38 -11 -43 3 -4 -6 -19 -19 -31 -25 -23 -35 -47 -15 -35
5 3 10 1 10 -4 0 -6 -4 -11 -9 -11 -17 0 -211 -194 -202 -203 12 -12 81 28 81
47 0 3 17 22 37 41 20 19 34 35 30 35 -4 0 2 11 14 24 15 18 30 23 61 22 23
-1 43 -6 45 -13 3 -7 -3 -10 -15 -6 -11 2 -23 -1 -28 -8 -5 -9 -2 -11 9 -6 9
3 19 2 22 -3 4 -6 1 -10 -4 -10 -6 0 -11 -9 -11 -20 0 -11 5 -20 10 -20 6 0
10 8 10 18 0 13 2 14 9 3 10 -15 -17 -71 -33 -68 -4 1 -11 -4 -13 -12 -4 -10
0 -11 17 -6 17 5 21 4 15 -5 -5 -9 -4 -11 4 -6 6 4 9 12 6 17 -10 15 0 11 25
-11 17 -15 20 -23 12 -33 -8 -10 -6 -13 11 -14 17 -2 19 0 7 7 -9 6 -10 10 -3
10 6 0 15 -5 18 -10 4 -6 11 -7 17 -4 6 4 8 2 5 -3 -4 -6 1 -17 10 -24 15 -12
16 -12 10 6 -6 17 -4 17 13 -4 11 -13 20 -18 20 -12 0 7 10 3 21 -8 l22 -20
-33 -31 c-17 -16 -33 -30 -35 -30 -1 0 -5 9 -8 20 -3 11 -11 20 -19 19 -10 0
-10 -2 0 -6 21 -8 13 -26 -9 -20 l-21 6 21 -20 c26 -25 26 -29 1 -22 -11 3
-20 9 -20 14 0 5 -5 9 -11 9 -8 0 -9 -4 0 -13 6 -8 7 -18 3 -22 -4 -5 -1 -5 6
-1 14 8 12 -28 -3 -41 -4 -5 -5 -3 -1 4 3 6 2 14 -4 18 -5 3 -10 1 -10 -5 0
-6 -4 -8 -10 -5 -5 3 -19 1 -30 -5 -16 -9 -25 -8 -36 1 -8 6 -14 8 -14 4 0 -4
-8 -1 -17 6 -14 12 -16 12 -9 -1 4 -9 1 -8 -7 3 -15 17 -33 24 -23 8 4 -5 -2
-7 -13 -4 -10 3 -22 0 -25 -6 -4 -5 -14 -7 -24 -4 -9 3 -14 3 -10 -2 10 -10
-40 -57 -53 -49 -5 3 -9 2 -8 -3 1 -4 -1 -15 -5 -24 -5 -12 4 -28 31 -55 41
-41 79 -104 63 -104 -5 0 -10 -4 -10 -9 0 -5 8 -8 18 -7 12 1 17 -6 17 -24 1
-19 5 -24 20 -22 15 3 17 1 7 -11 -6 -7 -8 -17 -4 -21 4 -4 8 -12 8 -17 1 -5
3 -10 4 -11 7 -8 6 -67 -1 -62 -14 9 -10 -4 8 -25 9 -11 20 -18 25 -15 13 8 9
-21 -4 -34 -9 -9 -9 -12 2 -12 7 0 10 -3 7 -7 -4 -3 -2 -12 4 -20 6 -7 8 -13
5 -13 -14 0 20 -27 42 -34 18 -6 20 -11 11 -33 -7 -18 -6 -30 1 -37 7 -7 10
-6 10 3 0 7 5 9 10 6 6 -4 8 -10 5 -15 -3 -4 -1 -10 5 -12 5 -1 11 -12 13 -23
1 -11 6 -26 10 -32 5 -7 5 -13 1 -13 -4 0 1 -9 10 -19 15 -16 16 -23 5 -42 -9
-17 -9 -24 -1 -27 7 -2 21 -23 31 -48 18 -40 41 -59 41 -34 0 6 5 10 10 10 6
0 10 -6 10 -14 0 -16 18 -31 26 -23 3 3 1 15 -6 26 -7 14 -7 21 0 21 5 0 10
10 10 23 -1 20 -2 21 -14 5 -7 -10 -16 -15 -19 -12 -3 4 0 13 8 20 8 8 12 22
9 32 -5 14 -3 14 10 -2 9 -11 16 -16 16 -10 1 5 8 -2 16 -16 8 -14 13 -18 10
-9 -3 12 0 15 14 12 16 -4 17 -8 7 -25 -10 -16 -9 -22 7 -33 16 -12 17 -17 6
-30 -11 -13 -10 -14 4 -9 17 7 21 21 17 68 -2 26 -1 28 12 18 23 -19 57 -24
50 -7 -2 8 -9 13 -15 12 -6 -1 -12 6 -13 15 -3 14 1 15 21 6 13 -6 24 -15 24
-19 0 -5 7 -6 15 -3 8 4 12 11 8 17 -4 7 0 8 12 3 15 -5 16 -4 5 9 -11 13 -10
14 5 9 13 -5 16 -4 10 5 -6 10 -3 11 13 2 15 -8 21 -8 25 2 3 9 8 9 23 -3 15
-11 16 -11 7 0 -11 11 -6 17 25 32 20 9 31 17 24 18 -7 0 -22 -5 -32 -10 -15
-8 -22 -6 -30 7 -10 16 -11 16 -6 1 8 -26 -16 -39 -39 -21 -16 13 -17 15 -2
10 11 -4 17 -1 17 8 0 8 -5 15 -10 15 -6 0 -16 11 -22 25 -9 19 -14 22 -25 14
-9 -8 -13 -8 -13 -1 0 21 20 22 69 3 44 -16 52 -17 70 -4 12 8 27 11 34 6 6
-4 20 -6 30 -5 9 2 20 -3 23 -11 3 -9 13 -13 25 -10 10 3 19 1 19 -5 0 -5 6
-12 14 -15 11 -4 13 2 11 26 -2 18 -1 24 1 15 3 -10 10 -18 15 -18 5 0 9 -7 9
-15 0 -8 5 -15 11 -15 5 0 7 5 4 10 -3 6 -1 10 5 10 6 0 8 6 4 12 -4 7 2 5 13
-5 11 -9 27 -15 36 -11 8 3 25 1 36 -5 16 -9 19 -9 15 2 -6 17 48 42 76 34 11
-3 20 -1 20 4 0 5 6 9 14 9 8 0 16 6 19 13 2 7 20 14 38 15 39 3 40 4 42 29 1
14 8 19 29 18 16 0 28 -6 28 -12 0 -7 5 -13 10 -13 6 0 10 5 10 10 0 6 6 9 13
8 6 -2 11 5 9 15 -2 9 2 17 8 17 5 0 10 -5 10 -12 0 -6 9 -2 20 10 12 12 27
22 35 22 8 0 15 6 15 13 1 7 6 5 14 -6 13 -16 14 -15 19 10 3 16 0 31 -6 35
-9 6 -8 8 2 8 8 0 11 6 7 18 -5 15 -4 15 8 -2 10 -12 21 -16 33 -12 15 6 15 8
3 16 -12 7 -8 11 16 16 28 5 55 27 117 94 46 50 116 108 123 101 4 -3 4 -1 1
5 -8 14 18 38 32 30 5 -4 12 3 16 14 4 11 24 34 45 52 22 17 37 34 35 38 -3 4
5 10 17 13 18 5 19 8 9 21 -7 9 -23 16 -35 16 -11 0 -48 -1 -81 -1 -127 -2
-182 -1 -238 3 -46 4 -57 2 -53 -9 3 -7 2 -13 -3 -13 -5 0 -11 8 -14 19 -4 16
-10 18 -46 11 -24 -4 -41 -3 -41 2 0 5 -5 6 -10 3 -6 -4 -8 -10 -5 -14 2 -5
-2 -17 -10 -27 -8 -10 -15 -14 -15 -8 0 5 5 15 10 20 7 7 1 11 -20 11 -21 0
-27 -3 -18 -9 9 -6 7 -8 -7 -6 -11 2 -25 -3 -32 -12 -8 -10 -12 -11 -13 -2 0
6 -10 13 -22 13 -15 1 -11 4 11 8 19 3 36 11 38 17 3 8 -7 9 -37 1 -22 -6 -40
-17 -40 -24 0 -7 -9 -13 -20 -13 -11 0 -23 -1 -27 -2 -5 -1 -23 -5 -41 -9 -21
-4 -37 -3 -45 5 -6 6 -22 12 -34 13 -12 1 -41 8 -65 16 -24 9 -66 18 -93 21
-27 3 -51 9 -52 13 -2 4 -21 8 -43 7 -21 0 -37 2 -35 5 2 4 -7 11 -20 17 -17
8 -23 8 -21 0 2 -6 1 -8 -1 -3 -3 4 -14 7 -25 7 -12 0 -18 3 -15 7 4 3 2 12
-4 19 -7 9 -1 15 26 24 19 6 35 17 35 25 0 7 8 19 18 26 15 13 16 12 4 -2 -10
-14 -10 -18 2 -22 19 -7 30 22 15 39 -10 12 -9 13 5 8 9 -3 23 -1 31 6 8 6 18
9 23 6 12 -7 52 22 52 39 0 8 5 17 12 21 7 5 8 3 3 -7 -5 -8 1 -5 13 5 12 11
22 26 22 35 0 13 2 14 9 2 7 -11 10 -10 13 5 3 16 14 19 88 21 54 1 89 -2 99
-10 12 -10 13 -9 6 2 -7 11 -2 13 26 8 20 -4 29 -4 21 2 -10 6 -7 10 12 15 25
6 28 26 5 26 -6 0 -7 -5 -3 -12 4 -6 -4 -3 -18 8 -14 10 -24 22 -22 25 1 3
-10 4 -25 1 -17 -2 -34 3 -44 12 -9 9 -20 15 -25 14 -6 -2 -10 1 -10 5 0 5
-13 22 -28 38 -15 16 -22 29 -16 29 7 0 12 4 12 10 0 5 -7 7 -15 3 -9 -3 -15
-2 -14 3 4 16 -14 69 -26 79 -15 12 -27 59 -18 69 13 13 11 36 -4 36 -8 0 -13
6 -10 13 2 6 10 11 16 9 17 -3 13 16 -6 27 -11 7 -14 14 -8 18 6 5 16 18 23
31 10 18 10 22 -2 22 -21 0 -27 27 -10 41 8 7 13 18 10 26 -3 7 -1 13 4 13 6
0 10 10 10 23 0 18 2 19 10 7 8 -11 9 -7 4 14 -4 17 -3 27 2 23 6 -3 11 5 12
19 1 13 -2 24 -6 24 -13 0 -8 50 6 59 8 5 13 10 12 12 -3 9 13 39 19 35 11 -7
8 38 -3 46 -6 4 -6 11 2 21 7 7 9 17 5 21 -4 3 -8 17 -10 29 -2 12 -10 27 -18
33 -12 9 -27 84 -26 137 0 10 -7 21 -14 24 -11 4 -12 10 -5 23 8 14 6 19 -7
22 -16 3 -15 6 6 27 20 20 22 26 9 35 -15 11 -17 53 -4 74 4 7 3 12 -2 12 -5
0 -12 14 -14 30 -3 17 -1 30 4 30 4 0 8 5 8 11 0 5 -4 8 -9 5 -12 -8 -19 36
-10 62 5 12 5 22 0 22 -12 0 -40 45 -44 69 -2 10 -8 25 -14 33 -7 7 -16 26
-22 41 -6 15 -18 27 -26 27 -9 0 -13 5 -10 10 3 6 1 10 -5 10 -6 0 -8 4 -5 10
4 6 -1 7 -11 3 -14 -5 -16 -3 -11 11 4 10 3 15 -3 11 -18 -11 -32 5 -19 21 7
9 8 14 1 14 -6 0 -13 -6 -15 -12 -4 -10 -8 -10 -15 0 -5 8 -12 13 -16 13 -25
-4 -46 1 -46 9 0 5 8 6 18 3 15 -6 15 -5 -1 12 -12 12 -21 14 -25 8 -4 -6 -8
11 -8 38 -2 40 -7 53 -30 73 -16 13 -31 22 -34 19 -3 -3 7 -15 23 -27 22 -18
25 -24 15 -35 -8 -8 -8 -11 -2 -8 15 8 26 -17 17 -39 -4 -12 -9 -8 -19 16 -8
18 -11 37 -7 43 3 6 1 7 -5 3 -7 -4 -16 3 -22 18 -27 68 -33 80 -37 69 -2 -6
10 -41 26 -78 17 -37 31 -73 31 -79 -1 -6 -7 3 -14 19 -28 65 -88 145 -119
161 -17 9 -42 26 -54 37 -13 11 -23 15 -23 9 0 -8 -7 -9 -25 -2 -15 6 -27 6
-30 0 -3 -5 -15 -6 -29 0 -12 4 -28 5 -35 1 -7 -5 -23 -6 -37 -3 -13 2 -24 0
-24 -4 0 -5 -18 -9 -39 -9 -30 -1 -36 2 -25 10 11 8 9 10 -10 10 -13 0 -22 -3
-20 -6 4 -8 -47 -31 -54 -25 -3 3 6 10 19 15 23 9 23 10 2 10 -12 1 -32 -3
-46 -8 -13 -5 -30 -6 -37 -1 -7 5 -27 0 -49 -12 l-36 -20 30 26 c17 14 33 26
38 26 4 0 7 5 7 11 0 8 -5 8 -15 -1 -9 -8 -28 -10 -48 -6 -17 3 -27 3 -22 -2
19 -13 5 -52 -18 -52 -7 1 -5 6 4 13 13 10 14 14 3 25 -10 9 -16 8 -27 -9 -9
-13 -17 -16 -22 -10 -3 6 -2 11 3 11 5 0 10 11 10 25 0 21 -3 23 -19 14 -11
-5 -19 -7 -19 -3 0 4 -9 -5 -21 -20 -11 -14 -25 -26 -31 -26 -6 0 0 9 13 21
l24 20 -24 -7 c-16 -4 -21 -3 -17 5 12 19 -10 12 -29 -9 -10 -11 -20 -18 -23
-16 -2 3 9 18 25 35 25 25 31 27 39 13 13 -19 49 -8 41 12 -4 9 15 35 45 66
41 40 52 58 54 88 3 35 2 36 -12 17 -13 -17 -16 -18 -24 -5 -5 8 -10 20 -10
25 0 6 4 4 9 -3 6 -10 10 -10 20 2 7 8 20 12 29 9 14 -4 14 -3 3 5 -8 6 -21 8
-29 4 -10 -3 -13 0 -10 9 3 8 15 13 27 12 11 -2 21 2 21 8 0 5 -4 7 -10 4 -16
-10 -12 7 7 27 16 18 16 18 -3 12 -10 -4 -24 -15 -31 -23 -10 -13 -14 -14 -25
-3 -11 11 -10 12 7 6 11 -4 17 -4 13 1 -4 4 0 14 10 22 12 10 13 16 5 19 -7 3
-9 13 -6 22 6 15 5 15 -10 3 -26 -21 -20 0 9 30 26 27 25 55 -2 45 -8 -3 -11
0 -8 9 3 8 11 12 19 9 7 -3 15 1 18 9 9 23 -25 15 -51 -13 l-23 -25 15 31 c8
17 12 35 8 38 -3 4 1 4 10 1 9 -4 18 0 22 10 3 9 2 14 -3 10 -17 -10 -36 5
-37 30 -1 14 2 25 7 25 5 0 9 -8 9 -17 0 -15 2 -14 14 3 8 10 11 21 6 24 -4 3
-11 15 -14 28 -6 17 -13 21 -27 17 -10 -4 -19 -2 -19 3 0 6 11 9 24 8 14 -2
27 3 30 11 3 8 1 11 -5 8 -13 -9 -7 32 10 65 l12 25 -20 -24 c-12 -12 -19 -27
-16 -31 7 -11 -26 -36 -55 -43 l-25 -6 25 19 c13 10 29 18 35 17 5 -1 9 4 7
12 -1 7 6 28 17 46 23 39 19 47 -18 34 -24 -9 -22 -6 14 32 38 40 38 41 8 20
-18 -12 -35 -26 -38 -32 -4 -5 -10 -7 -15 -4 -17 10 -20 -14 -4 -29 8 -9 10
-16 4 -16 -6 0 -14 8 -17 17 -6 15 -7 15 -15 -3 -7 -15 -7 -13 -5 9 6 37 -14
35 -54 -5 -17 -18 -38 -33 -46 -34 -8 -2 -12 1 -8 4 4 4 10 7 13 7 11 0 64 57
58 62 -3 3 -1 14 5 24 13 25 4 24 -21 -3 -20 -21 -21 -21 -15 -3 6 16 5 17 -4
5 -6 -8 -8 -23 -5 -32 7 -23 0 -23 -22 -1 -16 16 -16 16 -10 -4 6 -18 4 -21
-16 -15 -21 5 -22 4 -9 -11 12 -15 12 -17 -3 -11 -9 3 -16 9 -16 14 0 4 -9 17
-20 30 -20 23 -26 40 -14 40 4 0 13 -8 20 -17 10 -15 15 -16 26 -5 11 11 10
12 -3 7 -13 -5 -16 1 -14 30 1 20 10 44 20 53 16 16 17 16 6 -6 -13 -24 0 -65
13 -43 4 6 2 11 -4 11 -8 0 -9 7 -5 18 4 9 8 24 10 32 1 8 8 14 15 12 6 -1 9
2 5 8 -7 11 46 78 74 94 9 6 3 -5 -12 -23 -44 -52 -22 -50 24 2 22 26 46 47
52 47 6 0 1 -7 -11 -16 -21 -15 -32 -42 -12 -29 6 3 10 2 10 -3 0 -5 7 -9 15
-9 10 0 12 4 5 12 -7 9 -2 17 17 30 16 10 22 12 16 4 -15 -16 -17 -39 -3 -39
6 0 10 6 10 14 0 7 8 20 18 27 14 11 15 11 5 -1 -30 -33 -9 -30 35 6 l47 37
-38 -39 c-20 -22 -34 -43 -31 -47 9 -9 -16 -38 -26 -32 -5 3 -12 0 -16 -6 -5
-8 -3 -9 7 -4 11 6 12 5 2 -5 -10 -11 -15 -11 -28 0 -20 17 -19 5 1 -19 10
-11 24 -17 32 -14 12 5 11 1 -3 -20 -24 -38 -11 -34 16 5 13 17 18 28 11 24
-19 -11 -14 13 8 44 15 21 17 30 8 33 -9 4 -8 6 2 6 8 1 21 10 28 21 13 21 42
28 42 10 0 -7 6 -7 20 0 15 8 18 8 14 -3 -4 -10 6 -13 42 -12 l47 2 -24 -19
-24 -19 23 11 c36 18 38 4 2 -15 -18 -9 -29 -19 -26 -22 3 -3 20 4 39 16 40
24 60 28 31 5 -18 -14 -18 -15 6 -8 14 5 35 8 48 7 12 0 22 3 22 9 0 5 5 6 10
3 15 -9 -7 -35 -30 -35 -10 0 -20 -6 -23 -14 -7 -18 29 -9 92 23 24 13 40 17
35 10 -4 -7 9 -3 30 9 44 26 53 28 35 5 -12 -14 -10 -14 21 2 19 9 46 27 60
39 21 18 22 18 10 2 -14 -18 -13 -19 5 -12 56 22 89 27 112 17 14 -7 23 -7 23
-1 0 6 6 9 13 7 6 -1 11 4 9 11 -1 8 2 11 7 7 6 -3 23 1 39 9 15 8 45 13 65
11 20 -2 37 1 37 6 0 5 -12 7 -27 4 -23 -4 -25 -4 -8 4 50 24 172 66 193 66
13 1 26 6 30 11 10 15 42 30 80 37 41 8 41 1 0 -17 -18 -8 -44 -22 -58 -30
-14 -8 -34 -18 -45 -22 -19 -7 -19 -7 -2 -11 10 -3 26 2 36 11 10 9 21 16 24
16 18 0 137 63 132 70 -6 9 25 23 34 15 3 -3 -1 -10 -9 -15 -8 -6 -10 -10 -4
-10 18 0 46 48 32 52 -9 3 -9 6 0 12 7 4 12 3 12 -3 0 -15 31 -2 60 25 14 12
44 27 68 34 23 6 42 15 42 19 0 5 11 9 24 8 14 0 42 14 62 31 21 18 40 29 43
26 3 -3 -7 -16 -23 -29 -15 -12 -24 -25 -18 -29 5 -3 12 1 16 9 3 8 11 15 17
15 8 0 7 -5 -2 -17 -13 -15 -12 -15 8 -2 12 7 18 16 14 19 -5 3 7 21 26 40 33
33 34 34 22 8 -7 -16 -16 -28 -22 -28 -5 0 -7 -7 -3 -15 3 -9 -8 -30 -27 -52
-32 -36 -32 -36 -4 -18 15 10 32 26 38 36 6 11 16 16 27 13 10 -4 13 -2 7 3
-13 10 -13 28 -1 40 5 4 6 3 3 -3 -9 -16 23 -28 37 -14 5 5 16 10 23 10 20 0
83 43 83 57 0 6 5 15 12 19 7 5 8 3 3 -6 -6 -10 -4 -12 8 -7 10 4 17 1 17 -6
1 -7 7 -1 15 13 15 25 15 25 11 -12 -4 -38 -52 -112 -66 -103 -4 3 -16 -12
-25 -33 -10 -20 -29 -50 -42 -65 -13 -16 -20 -34 -17 -39 4 -7 2 -8 -5 -4 -7
5 -22 -2 -35 -16 -96 -98 -158 -145 -261 -195 -120 -59 -119 -62 1 -12 55 23
110 58 187 120 61 49 114 90 119 91 5 2 10 10 11 18 4 22 17 40 29 40 6 0 5
-7 -3 -17 -7 -10 0 -6 16 8 17 14 65 49 108 78 75 49 105 57 92 23 -4 -12 -1
-12 16 4 50 44 67 64 59 69 -5 3 -20 -9 -34 -27 -16 -21 -29 -29 -35 -23 -6 7
6 23 35 48 25 22 41 31 37 21 -4 -12 -3 -15 5 -10 7 4 12 2 12 -6 1 -9 5 -7
14 4 17 23 30 23 22 2 -6 -14 -4 -15 9 -4 13 10 13 15 3 21 -10 6 -5 16 18 41
17 18 40 49 52 68 12 21 30 36 41 37 25 2 24 4 10 -35 -6 -17 -17 -33 -24 -36
-8 -3 -19 -15 -26 -28 l-12 -23 27 24 c21 20 26 22 26 8 0 -9 -5 -17 -11 -17
-5 0 -7 -4 -4 -10 3 -5 2 -10 -4 -10 -5 0 -12 -15 -16 -32 -4 -18 -18 -51 -32
-73 -24 -38 -23 -37 29 15 29 30 61 66 71 80 12 17 11 11 -4 -20 -29 -59 -61
-102 -69 -90 -3 5 -12 -1 -19 -13 -13 -20 -13 -21 2 -8 39 32 12 -10 -54 -84
l-72 -80 79 80 c44 45 91 96 106 115 24 32 26 33 22 10 -5 -22 -3 -21 13 7 10
18 21 31 24 30 15 -5 47 35 42 52 -3 11 0 22 6 25 6 4 11 19 12 34 0 24 1 25
8 7 5 -11 5 -27 0 -36 -5 -9 -6 -19 -3 -22 12 -12 -19 -79 -47 -99 -16 -12
-29 -26 -29 -31 0 -6 8 -3 17 5 10 9 29 21 43 27 24 12 24 11 5 -4 -11 -9 -21
-20 -21 -25 -1 -6 -2 -16 -3 -24 0 -7 -12 -25 -27 -41 -14 -15 -22 -30 -19
-34 4 -3 16 5 27 19 11 14 24 24 28 23 4 -1 18 10 31 25 l24 27 -27 -24 c-35
-30 -36 -21 -3 27 14 20 25 42 25 48 0 6 9 23 20 36 10 14 17 27 15 30 -6 6
24 110 36 123 12 12 12 9 -10 -62 -12 -41 -15 -63 -8 -63 6 0 -1 -13 -16 -28
-27 -28 -36 -49 -17 -37 13 8 13 -8 0 -21 -12 -12 -2 -47 11 -38 5 3 9 10 9
15 0 6 -4 7 -10 4 -5 -3 -10 -2 -10 3 0 14 62 72 71 66 5 -3 9 -1 9 5 0 5 3
18 6 28 5 15 4 15 -5 3 -6 -8 -11 -10 -11 -4 0 6 7 17 15 24 8 7 15 19 15 27
0 7 7 16 15 19 8 4 13 10 10 14 -3 5 -1 19 4 32 8 20 9 19 7 -12 -1 -19 -5
-40 -9 -47 -4 -6 -3 -14 2 -18 6 -3 13 11 17 32 4 21 8 34 9 28 10 -44 30 -95
38 -95 5 0 6 8 2 18 -19 44 -22 92 -8 112 8 11 19 18 24 15 5 -4 9 3 9 14 0
31 17 25 29 -10 16 -46 12 -71 -4 -29 -18 46 -18 16 0 -34 15 -43 11 -79 -17
-144 -26 -63 -21 -86 7 -27 22 47 23 48 22 18 -1 -18 -6 -33 -10 -33 -5 0 -5
-5 -1 -11 5 -8 10 -6 16 5 5 9 7 20 4 25 -3 5 1 11 9 15 15 5 31 -9 18 -17 -5
-2 -2 -2 5 -1 19 5 43 -7 35 -19 -4 -7 0 -8 12 -3 15 5 16 4 5 -9 -11 -13 -10
-14 6 -8 17 6 18 5 4 -13 -14 -18 -14 -18 8 1 20 16 25 17 32 5 6 -8 10 -33
10 -55 0 -64 4 -85 19 -95 12 -7 11 -12 -10 -30 -15 -14 -18 -20 -7 -17 10 4
18 -1 21 -14 6 -21 -10 -85 -27 -110 -6 -8 1 -3 16 12 14 15 29 25 32 22 3 -3
17 8 31 23 l27 29 -21 -32 c-12 -17 -21 -41 -21 -53 0 -13 -8 -29 -17 -37 -17
-14 -17 -14 0 -9 18 6 24 -9 7 -19 -5 -3 -10 -14 -10 -23 0 -13 2 -13 16 4 14
18 15 16 8 -21 -12 -70 -14 -169 -2 -157 10 10 48 5 48 -6 0 -3 -10 -17 -22
-31 -14 -15 -16 -20 -5 -12 12 10 21 11 28 4 8 -8 7 -13 -2 -18 -8 -6 -10 -4
-4 6 5 8 4 11 -1 6 -5 -5 -9 -25 -11 -45 -1 -20 -6 -38 -12 -40 -7 -2 -5 -14
4 -33 17 -32 10 -39 -12 -11 -10 12 -9 7 2 -16 9 -19 14 -36 11 -40 -3 -3 -6
1 -6 9 -1 8 -10 -4 -21 -26 -19 -39 -19 -40 1 -67 23 -32 27 -52 4 -23 -15 19
-16 18 -10 -23 4 -29 3 -41 -4 -37 -14 9 -13 -8 3 -24 10 -10 8 -11 -7 -5 -16
6 -17 4 -8 -13 6 -11 9 -28 8 -39 -2 -10 0 -23 4 -29 13 -19 20 -46 10 -40
-13 8 -13 -8 0 -21 5 -5 11 -18 13 -29 1 -11 6 -26 10 -32 5 -8 3 -13 -4 -13
-8 0 -8 -4 -1 -12 5 -7 11 -72 11 -144 1 -72 4 -142 6 -155 2 -13 6 -51 9 -84
3 -33 12 -109 20 -170 27 -204 36 -258 46 -270 11 -14 24 -93 21 -132 -1 -24
3 -33 14 -33 19 0 35 39 35 85 0 19 4 37 10 40 6 3 10 1 10 -5 0 -6 4 -9 9 -5
5 3 7 22 4 43 -10 61 -6 163 6 175 8 8 11 0 11 -29 0 -21 5 -55 10 -74 6 -19
11 -50 12 -68 3 -78 34 21 37 122 1 38 6 78 10 90 5 11 11 42 15 69 4 26 11
45 16 42 4 -3 11 7 14 20 4 14 10 24 15 21 4 -3 6 6 3 21 -3 17 -1 24 6 19 6
-3 12 0 15 6 3 7 3 -5 2 -27 -2 -22 -4 -78 -6 -125 -2 -94 -19 -233 -43 -354
-12 -56 -16 -130 -15 -250 1 -94 -5 -224 -11 -288 -10 -92 -11 -136 -1 -201
24 -173 -39 -341 -150 -397 -21 -11 -45 -20 -53 -20 -10 0 -21 -20 -31 -57
-31 -109 -97 -278 -156 -400 -107 -218 -163 -306 -375 -585 -114 -150 -144
-202 -144 -251 0 -18 -3 -37 -7 -40 -3 -4 -8 -22 -10 -39 -5 -56 -23 -170 -40
-259 l-16 -86 46 -99 c53 -114 65 -161 77 -299 5 -55 20 -188 34 -295 13 -107
27 -271 31 -365 6 -175 27 -310 69 -465 36 -131 71 -266 126 -489 28 -112 62
-229 76 -260 14 -30 32 -76 40 -101 9 -25 18 -52 21 -60 4 -8 7 -17 7 -20 1
-3 5 -11 10 -18 4 -7 5 -16 2 -19 -3 -3 -1 -13 4 -23 5 -9 12 -32 15 -51 3
-18 10 -38 14 -44 5 -5 12 -26 16 -45 4 -19 11 -39 15 -45 4 -5 10 -23 13 -40
3 -16 20 -77 37 -135 18 -58 32 -113 32 -124 -1 -10 8 -20 19 -23 10 -3 19 -9
19 -14 0 -5 8 -9 17 -9 9 0 27 -10 40 -22 l23 -21 1 24 c1 17 3 19 6 6 3 -10
-1 -24 -7 -32 -10 -12 -9 -15 9 -15 14 0 21 -6 21 -19 0 -11 5 -32 12 -48 6
-15 10 -34 9 -41 -1 -6 3 -12 9 -12 6 0 9 -4 5 -10 -3 -5 3 -18 14 -29 11 -11
16 -23 13 -27 -4 -4 -2 -4 5 0 13 7 43 -52 43 -85 0 -11 4 -19 8 -19 5 0 14
-25 21 -55 7 -30 16 -53 20 -51 4 3 7 -12 7 -34 -1 -21 2 -36 5 -34 13 8 49
-31 51 -56 2 -14 9 -31 16 -38 6 -7 12 -23 12 -35 0 -17 -2 -19 -9 -8 -7 10
-9 7 -8 -12 2 -21 5 -23 16 -14 12 10 14 9 8 -6 -6 -16 55 -17 1198 -17 l1205
0 0 5870 0 5870 -5190 0 -5190 0 0 -5870z m7114 3289 c-6 -10 -16 -80 -16
-108 0 -18 -2 -20 -9 -10 -6 10 -9 10 -9 2 0 -7 -5 -13 -10 -13 -7 0 -7 6 -1
18 5 9 15 45 21 80 8 39 16 59 21 51 4 -7 6 -16 3 -20z m91 -61 c-2 -39 -9
-76 -15 -82 -8 -8 -10 -4 -5 14 5 21 8 51 14 128 1 6 3 12 6 12 2 0 2 -32 0
-72z m62 35 c-3 -10 -5 -4 -5 12 0 17 2 24 5 18 2 -7 2 -21 0 -30z m33 -11 c0
-16 -6 -37 -14 -48 -14 -18 -15 -18 -13 4 1 12 5 22 9 22 4 0 8 11 8 25 0 14
2 25 5 25 3 0 5 -13 5 -28z m-450 8 c0 -5 -5 -10 -11 -10 -5 0 -7 5 -4 10 3 6
8 10 11 10 2 0 4 -4 4 -10z m46 -27 c-8 -15 -15 -22 -16 -15 0 17 20 55 27 49
2 -3 -2 -18 -11 -34z m87 17 c-3 -11 -10 -23 -16 -27 -5 -3 -8 -2 -5 3 3 5 8
17 11 27 9 24 16 22 10 -3z m-48 -30 c-10 -11 -20 -18 -22 -16 -6 5 30 44 36
39 2 -1 -4 -12 -14 -23z m222 8 c-3 -8 -6 -5 -6 6 -1 11 2 17 5 13 3 -3 4 -12
1 -19z m-326 -11 c-10 -9 -11 -8 -5 6 3 10 9 15 12 12 3 -3 0 -11 -7 -18z
m292 -28 c-6 -6 -7 3 -4 23 4 28 6 29 9 9 2 -13 0 -27 -5 -32z m137 16 c0 -8
-4 -15 -10 -15 -5 0 -7 7 -4 15 4 8 8 15 10 15 2 0 4 -7 4 -15z m-460 -25 c0
-18 -38 -61 -119 -135 -18 -16 -30 -23 -27 -15 13 42 16 71 6 65 -17 -10 -11
8 11 35 17 21 19 22 10 3 -14 -28 -14 -30 3 -36 11 -4 13 -1 9 10 -4 11 -3 14
6 9 6 -4 18 -2 26 4 8 7 15 9 15 4 0 -5 11 3 25 18 14 15 25 34 25 43 0 8 2
15 5 15 3 0 5 -9 5 -20z m160 -25 c-7 -20 -14 -34 -17 -31 -3 2 0 21 7 41 7
20 14 34 17 31 3 -2 0 -21 -7 -41z m-109 -2 c-12 -20 -14 -14 -5 12 4 9 9 14
11 11 3 -2 0 -13 -6 -23z m-241 -4 c-7 -11 -14 -19 -16 -16 -7 7 7 37 17 37 6
0 5 -9 -1 -21z m143 -10 c-9 -9 -12 -7 -10 9 1 14 5 18 11 12 7 -7 6 -14 -1
-21z m241 19 c-42 -71 -87 -138 -91 -134 -5 5 85 146 93 146 3 0 2 -6 -2 -12z
m-342 -20 c-7 -7 -12 -8 -12 -2 0 14 12 26 19 19 2 -3 -1 -11 -7 -17z m71 -3
c-3 -9 -8 -14 -10 -11 -3 3 -2 9 2 15 9 16 15 13 8 -4z m377 5 c0 -5 -5 -10
-11 -10 -5 0 -7 5 -4 10 3 6 8 10 11 10 2 0 4 -4 4 -10z m59 -22 c-5 -17 -13
-36 -19 -42 -10 -10 2 43 15 64 12 19 14 10 4 -22z m-526 8 c3 -7 -1 -24 -10
-36 -12 -18 -17 -19 -25 -9 -7 11 -8 9 -4 -4 3 -10 -1 -33 -9 -50 l-16 -32 31
35 c16 19 30 38 30 42 0 4 4 8 9 8 14 0 -5 -69 -26 -92 -18 -21 -18 -21 5 -9
12 6 22 16 22 21 0 6 5 10 11 10 17 0 -10 -29 -42 -46 -34 -17 -66 -9 -48 12
20 25 3 15 -22 -12 l-24 -27 28 7 c39 9 27 -6 -33 -43 -39 -24 -47 -27 -38
-12 7 11 20 22 30 24 10 3 18 11 18 17 0 9 -5 9 -17 -1 -11 -9 -9 -3 5 16 44
58 53 73 57 93 5 26 23 62 43 85 18 21 18 21 25 3z m187 -21 c-7 -8 -16 -12
-21 -9 -5 3 -9 -4 -9 -14 0 -11 -7 -26 -16 -33 -15 -12 -16 -11 -9 11 9 31 25
51 35 45 4 -3 11 5 15 18 4 14 8 17 12 9 3 -7 -1 -19 -7 -27z m-360 11 c0 -2
-8 -10 -17 -17 -16 -13 -17 -12 -4 4 13 16 21 21 21 13z m557 -11 c0 -8 -5
-15 -10 -15 -6 0 -7 -3 -4 -6 3 -4 2 -15 -4 -26 -18 -33 -21 -13 -5 26 16 39
23 45 23 21z m63 -39 c-5 -21 -14 -44 -21 -50 -9 -8 -10 -6 -5 9 5 11 9 29 10
41 3 22 16 48 21 42 2 -2 0 -21 -5 -42z m-641 -12 l-34 -37 30 18 30 17 -25
-20 c-13 -11 -27 -20 -30 -19 -3 1 -15 -4 -27 -11 -13 -7 -23 -9 -23 -5 0 15
61 83 70 78 4 -3 13 2 20 10 7 9 15 13 18 10 3 -3 -10 -22 -29 -41z m-68 3
c-10 -9 -11 -8 -5 6 3 10 9 15 12 12 3 -3 0 -11 -7 -18z m-61 8 c0 -2 -10 -9
-22 -15 -22 -11 -22 -10 -4 4 21 17 26 19 26 11z m1047 -27 c-3 -8 -6 -5 -6 6
-1 11 2 17 5 13 3 -3 4 -12 1 -19z m20 -18 c-7 -17 -13 -26 -15 -21 -3 10 15
51 22 51 3 0 -1 -14 -7 -30z m20 -15 c0 -8 -4 -15 -9 -15 -10 0 -11 14 -1 23
9 10 10 9 10 -8z m-1397 -63 c0 -4 -9 -8 -19 -8 -11 0 -17 4 -15 8 3 4 12 8
20 8 8 0 14 -4 14 -8z m-150 -26 c0 -2 -7 -7 -16 -10 -8 -3 -12 -2 -9 4 6 10
25 14 25 6z m138 -1 c-3 -3 -20 -10 -37 -15 -28 -8 -31 -7 -21 5 7 8 24 15 38
15 14 0 23 -2 20 -5z m-38 -29 c0 -2 -11 -11 -25 -20 -20 -13 -23 -13 -19 -2
3 8 13 17 22 19 10 3 18 5 20 6 1 0 2 -1 2 -3z m-110 -20 c0 -2 -8 -10 -17
-17 -16 -13 -17 -12 -4 4 13 16 21 21 21 13z m1683 -47 c-6 -6 -7 3 -4 23 4
28 6 29 9 9 2 -13 0 -27 -5 -32z m-1748 1 c-3 -5 -12 -10 -18 -10 -7 0 -6 4 3
10 19 12 23 12 15 0z m1776 -31 c-5 -13 -10 -18 -10 -11 -1 7 -5 10 -11 7 -15
-10 -12 3 7 25 21 24 28 13 14 -21z m-1829 6 c-23 -17 -101 -51 -91 -41 9 10
93 54 104 55 5 1 0 -6 -13 -14z m1825 -67 c2 -17 0 -19 -7 -8 -5 8 -6 18 -4
22 8 12 10 10 11 -14z m27 -40 c-10 -13 -20 -25 -21 -27 -2 -2 -3 1 -3 7 0 11
27 42 37 42 3 0 -2 -10 -13 -22z m-2489 -42 c-23 -15 -80 -35 -122 -42 -21 -3
-24 -2 -13 6 8 5 23 10 33 10 9 0 34 9 54 20 44 23 79 28 48 6z m51 -1 c-11
-8 -25 -15 -30 -15 -6 1 0 7 14 15 32 19 40 18 16 0z m-74 -38 c-12 -7 -19
-16 -15 -21 4 -4 -1 -4 -11 0 -17 6 -16 8 5 20 13 7 29 13 34 13 6 0 0 -5 -13
-12z m133 3 c-3 -5 -12 -10 -18 -10 -7 0 -6 4 3 10 19 12 23 12 15 0z m-722
-50 c-35 -50 -59 -60 -31 -14 17 28 42 52 56 54 2 0 -9 -18 -25 -40z m-75 -30
c-7 -11 -17 -20 -22 -20 -5 0 -1 9 9 20 10 11 20 20 22 20 2 0 -2 -9 -9 -20z
m3188 -64 c-21 -49 -28 -46 -9 4 9 22 18 38 20 36 2 -2 -3 -20 -11 -40z
m-3046 -126 c0 -5 -4 -10 -10 -10 -5 0 -10 5 -10 10 0 6 5 10 10 10 6 0 10 -4
10 -10z m96 -18 c-18 -16 -18 -16 -6 6 6 13 14 21 18 18 3 -4 -2 -14 -12 -24z
m-276 14 c0 -3 -4 -8 -10 -11 -5 -3 -10 -1 -10 4 0 6 5 11 10 11 6 0 10 -2 10
-4z m177 -38 c-3 -8 -6 -5 -6 6 -1 11 2 17 5 13 3 -3 4 -12 1 -19z m46 -23
c-3 -9 -8 -14 -10 -11 -3 3 -2 9 2 15 9 16 15 13 8 -4z m3046 -39 c0 -6 -5
-20 -10 -31 -8 -18 -9 -17 -5 4 3 14 0 31 -6 38 -8 11 -7 12 6 7 9 -3 16 -11
15 -18z m-3169 -40 c0 -3 -4 -8 -10 -11 -5 -3 -10 -1 -10 4 0 6 5 11 10 11 6
0 10 -2 10 -4z m192 -18 c-7 -7 -12 -8 -12 -2 0 14 12 26 19 19 2 -3 -1 -11
-7 -17z m-30 -80 c-7 -7 -12 -8 -12 -2 0 14 12 26 19 19 2 -3 -1 -11 -7 -17z
m2949 -51 c-10 -9 -11 -8 -5 6 3 10 9 15 12 12 3 -3 0 -11 -7 -18z m-2881 -42
c0 -2 -8 -9 -18 -14 -14 -7 -19 -6 -19 3 0 6 9 13 19 13 10 1 18 0 18 -2z
m-99 -258 c-10 -9 -11 -8 -5 6 3 10 9 15 12 12 3 -3 0 -11 -7 -18z m28 -52
c-23 -25 -44 -45 -46 -45 -6 0 50 73 62 82 29 22 21 3 -16 -37z m-79 11 c0 -2
-8 -10 -17 -17 -16 -13 -17 -12 -4 4 13 16 21 21 21 13z m40 -16 c0 -5 -5 -10
-11 -10 -5 0 -7 5 -4 10 3 6 8 10 11 10 2 0 4 -4 4 -10z m-104 -16 c-5 -12 -2
-15 10 -10 13 5 14 4 6 -7 -7 -8 -9 -16 -6 -20 8 -7 -27 -67 -39 -67 -5 0 -3
7 4 17 8 9 15 30 15 47 2 49 4 56 10 56 3 0 3 -7 0 -16z m70 -17 c10 4 12 0 7
-13 -4 -12 -3 -15 5 -10 7 4 12 3 12 -2 0 -19 -14 -21 -27 -4 -12 16 -14 16
-28 -2 -18 -23 -20 -4 -3 27 6 13 13 17 15 10 3 -7 11 -9 19 -6z m-86 -12 c0
-12 -19 -12 -23 0 -4 9 -1 12 9 8 7 -3 14 -7 14 -8z m-14 -40 c-11 -8 -24 -15
-30 -15 -5 0 -1 7 10 15 10 8 24 14 29 14 6 0 1 -6 -9 -14z m711 -51 c3 3 22
-6 42 -19 19 -14 41 -25 49 -25 7 0 17 -12 22 -26 14 -37 11 -43 -6 -11 -8 15
-20 27 -27 28 -30 2 -50 9 -66 23 -10 9 -22 16 -28 16 -6 0 -17 7 -24 17 -13
15 -12 15 9 4 13 -7 26 -10 29 -7z m-577 2 c0 -2 -8 -10 -17 -17 -16 -13 -17
-12 -4 4 13 16 21 21 21 13z m24 -15 c3 -5 -2 -15 -12 -22 -15 -12 -16 -12 -5
2 7 9 10 19 6 22 -3 4 -4 7 0 7 3 0 8 -4 11 -9z m516 -16 c13 -14 21 -25 18
-25 -2 0 -15 11 -28 25 -13 14 -21 25 -18 25 2 0 15 -11 28 -25z m110 -61 c0
-7 -58 25 -65 36 -3 5 10 1 29 -11 20 -12 36 -23 36 -25z m-1 -68 c-2 -2 -13
8 -23 22 l-19 27 24 -22 c12 -12 21 -24 18 -27z m75 28 c3 -8 2 -12 -4 -9 -6
3 -10 10 -10 16 0 14 7 11 14 -7z m-33 -51 c13 -16 12 -17 -3 -4 -10 7 -18 15
-18 17 0 8 8 3 21 -13z m-463 -72 c25 -13 66 -5 56 11 -4 7 0 7 12 0 11 -5 40
-12 66 -15 28 -4 56 -15 68 -27 17 -17 24 -19 36 -9 13 10 18 6 15 -13 0 -4 6
-5 14 -2 12 5 45 -16 45 -29 0 -2 -17 -4 -37 -4 -66 -1 -267 -14 -283 -18 -8
-2 -42 -7 -75 -10 -33 -4 -68 -11 -79 -17 -16 -9 -18 -8 -12 8 6 16 5 16 -15
-2 -12 -10 -20 -14 -16 -8 4 7 -5 11 -23 11 -16 0 -32 -7 -35 -15 -4 -11 -8
-12 -19 -3 -10 8 -16 9 -21 1 -8 -12 -35 -13 -35 -1 0 5 6 11 13 14 11 4 -2 2
-50 -9 -26 -5 -41 13 -19 22 9 3 13 11 10 16 -4 6 -10 5 -15 -3 -6 -10 -9 -11
-9 -1 0 7 -14 12 -32 13 -18 0 -27 3 -20 6 6 2 10 8 7 13 -3 5 19 14 50 20 30
6 57 16 60 21 4 5 23 9 43 10 32 1 34 2 12 8 -17 5 -21 9 -13 14 7 5 21 3 32
-3 11 -5 28 -10 38 -10 17 1 17 2 -1 15 -18 13 -8 15 95 11 63 -2 125 -9 137
-15z m32 9 c8 -5 11 -10 5 -10 -5 0 -17 5 -25 10 -8 5 -10 10 -5 10 6 0 17 -5
25 -10z m340 -105 c0 -2 -8 -9 -18 -14 -14 -7 -19 -6 -19 3 0 6 9 13 19 13 10
1 18 0 18 -2z m-345 -35 c3 -6 -1 -7 -9 -4 -18 7 -21 14 -7 14 6 0 13 -4 16
-10z m84 -3 c10 2 36 -5 59 -17 23 -12 47 -18 54 -14 10 6 10 4 0 -7 -11 -12
-19 -11 -52 9 -22 12 -41 18 -45 13 -3 -6 -17 -6 -36 1 -23 8 -27 13 -17 19 7
5 14 4 16 0 2 -5 11 -7 21 -4z m-479 -17 c0 -5 -5 -10 -11 -10 -5 0 -7 5 -4
10 3 6 8 10 11 10 2 0 4 -4 4 -10z m-30 -10 c0 -5 -2 -10 -4 -10 -3 0 -8 5
-11 10 -3 6 -1 10 4 10 6 0 11 -4 11 -10z m661 -37 c13 -17 13 -17 -6 -3 -11
8 -22 16 -24 17 -2 2 0 3 6 3 6 0 17 -8 24 -17z m-195 -39 c-5 -14 -4 -15 9
-4 10 8 15 9 15 2 0 -6 7 -9 16 -5 9 3 15 2 13 -3 -24 -51 -35 -64 -53 -64
-18 0 -22 6 -21 33 1 32 11 57 22 57 3 0 2 -7 -1 -16z m169 -24 c-4 8 4 2 18
-15 18 -21 21 -32 13 -40 -11 -12 -138 -47 -144 -40 -2 2 4 17 13 35 9 17 17
45 17 61 1 31 7 36 26 17 9 -9 12 -8 12 8 0 16 4 15 26 -11 14 -16 22 -23 19
-15z m-270 0 c-3 -5 -10 -10 -16 -10 -5 0 -9 5 -9 10 0 6 7 10 16 10 8 0 12
-4 9 -10z m188 -147 c-6 -16 -4 -16 9 -5 14 11 16 10 11 -7 -6 -25 -12 -26
-42 -4 -23 16 -23 17 -5 24 30 12 34 10 27 -8z m71 2 c-3 -8 -9 -13 -14 -12
-4 1 -17 -9 -28 -23 -17 -21 -23 -23 -34 -12 -11 11 -10 12 4 7 11 -5 21 3 34
24 18 31 48 44 38 16z m-159 -4 c-3 -5 -1 -12 5 -16 6 -4 8 -11 5 -16 -4 -5
-3 -14 1 -20 5 -8 9 -8 14 1 6 10 13 9 31 -3 20 -14 20 -17 6 -23 -20 -7 -22
-35 -5 -52 9 -9 9 -12 -1 -12 -7 0 -9 -5 -5 -12 4 -8 3 -10 -2 -5 -5 5 -9 14
-9 20 -1 12 -6 12 -35 4 -8 -2 -12 -2 -7 0 4 3 5 9 2 14 -4 5 -12 3 -19 -4 -8
-6 -12 -15 -9 -19 2 -5 1 -8 -4 -9 -4 0 -16 -2 -25 -4 -10 -2 -21 1 -24 6 -4
6 -10 6 -18 0 -19 -16 -146 -15 -146 1 0 4 -8 8 -17 9 -11 0 -13 3 -5 6 6 2 9
10 5 16 -4 7 2 5 12 -3 10 -8 16 -10 12 -3 -4 6 -1 13 5 16 10 3 10 9 1 25
-11 19 -10 21 15 20 25 -1 27 -4 25 -37 -2 -36 -2 -35 8 6 7 30 14 40 24 36 8
-3 15 -15 15 -26 0 -19 1 -20 13 -3 15 20 51 11 43 -10 -3 -8 -1 -14 4 -14 6
0 10 7 10 15 0 8 4 15 10 15 5 0 6 8 3 18 -6 15 -5 15 10 3 9 -7 23 -11 32 -8
8 4 18 -1 23 -10 8 -13 13 -13 33 -2 16 8 20 14 10 17 -7 2 -17 -2 -22 -9 -6
-10 -13 -3 -25 26 -9 22 -18 43 -21 48 -2 4 3 7 12 7 9 0 14 -4 10 -9z m215 5
c0 -3 -4 -8 -10 -11 -5 -3 -10 -1 -10 4 0 6 5 11 10 11 6 0 10 -2 10 -4z
m-325 -16 c3 -5 1 -10 -4 -10 -6 0 -11 5 -11 10 0 6 2 10 4 10 3 0 8 -4 11
-10z m64 -12 c-9 -16 -14 -19 -17 -9 -2 7 2 17 9 22 20 13 21 11 8 -13z m91 7
c7 -8 8 -15 2 -15 -5 0 -15 7 -22 15 -7 8 -8 15 -2 15 5 0 15 -7 22 -15z m-67
-29 c4 -10 1 -13 -8 -9 -8 3 -12 9 -9 14 7 12 11 11 17 -5z m174 -21 c0 -20
-4 -19 -17 5 -8 15 -8 18 3 14 8 -3 14 -11 14 -19z m-68 -41 c4 3 7 -4 7 -15
0 -10 -3 -19 -6 -19 -10 0 -29 38 -22 45 4 3 8 1 10 -4 2 -6 7 -9 11 -7z m71
-16 c0 -5 -5 -8 -11 -8 -5 0 -7 5 -4 10 3 6 1 10 -4 10 -6 0 -11 -5 -11 -11 0
-5 -5 -7 -12 -3 -7 5 -5 11 7 21 15 10 20 10 27 0 4 -6 8 -15 8 -19z m690 18
c0 -3 -4 -8 -10 -11 -5 -3 -10 -1 -10 4 0 6 5 11 10 11 6 0 10 -2 10 -4z
m-598 -64 c-7 -2 -9 -8 -6 -13 3 -6 -6 -7 -23 -3 -51 12 -53 19 -6 20 26 0 41
-2 35 -4z m-112 -22 c0 -5 -4 -10 -10 -10 -5 0 -10 5 -10 10 0 6 5 10 10 10 6
0 10 -4 10 -10z m-145 -10 c3 -5 1 -10 -4 -10 -6 0 -11 5 -11 10 0 6 2 10 4
10 3 0 8 -4 11 -10z m40 0 c-3 -5 -11 -10 -16 -10 -6 0 -7 5 -4 10 3 6 11 10
16 10 6 0 7 -4 4 -10z m-740 -10 c3 -6 -1 -7 -9 -4 -18 7 -21 14 -7 14 6 0 13
-4 16 -10z m-55 -20 c0 -5 -5 -10 -11 -10 -5 0 -7 5 -4 10 3 6 8 10 11 10 2 0
4 -4 4 -10z m30 6 c0 -3 -4 -8 -10 -11 -5 -3 -10 -1 -10 4 0 6 5 11 10 11 6 0
10 -2 10 -4z m770 -6 c0 -5 -4 -10 -10 -10 -5 0 -10 5 -10 10 0 6 5 10 10 10
6 0 10 -4 10 -10z m-757 -110 c-8 -30 -21 -33 -19 -5 0 14 6 25 13 25 6 0 9
-9 6 -20z m-10 -74 c12 -9 14 -16 8 -21 -6 -3 -11 -1 -11 6 0 7 -7 4 -16 -7
-15 -18 -15 -18 -5 3 8 16 8 23 -2 26 -6 3 -7 6 -2 6 6 0 18 -6 28 -13z m27
-106 c0 -5 -2 -10 -4 -10 -3 0 -8 5 -11 10 -3 6 -1 10 4 10 6 0 11 -4 11 -10z
m10 -30 c0 -5 -5 -10 -11 -10 -5 0 -7 5 -4 10 3 6 8 10 11 10 2 0 4 -4 4 -10z
m67 -168 c-10 -10 -14 -22 -10 -27 5 -4 2 -5 -5 -1 -9 6 -8 13 5 31 10 13 20
21 22 19 2 -2 -3 -12 -12 -22z m819 -738 c-4 -9 -9 -15 -11 -12 -3 3 -3 13 1
22 4 9 9 15 11 12 3 -3 3 -13 -1 -22z m-1117 -91 c-2 -26 -8 -40 -16 -40 -8 0
-11 7 -9 14 3 8 1 11 -4 8 -6 -3 -10 -1 -10 5 0 6 -5 8 -11 5 -7 -5 -8 5 -3
32 9 53 12 55 35 34 15 -13 19 -29 18 -58z m1291 48 c-15 -30 -30 -35 -17 -6
7 14 16 25 20 25 4 0 3 -9 -3 -19z m-229 -14 c-10 -9 -11 -8 -5 6 3 10 9 15
12 12 3 -3 0 -11 -7 -18z m-211 -7 c0 -5 -4 -10 -10 -10 -5 0 -10 5 -10 10 0
6 5 10 10 10 6 0 10 -4 10 -10z m1396 -98 c0 -13 -8 -18 -28 -18 -35 0 -35 2
0 20 15 8 27 15 27 16 1 0 1 -8 1 -18z m-396 -34 c0 -4 -9 -8 -20 -8 -11 0
-20 4 -20 9 0 6 9 9 20 8 11 -1 20 -5 20 -9z m70 -17 c0 -5 -22 -12 -50 -16
-27 -4 -52 -11 -56 -16 -7 -12 -54 -12 -54 0 0 17 22 25 90 31 36 4 66 8 68 9
1 0 2 -3 2 -8z m36 -6 c-21 -16 -32 -13 -21 4 3 6 14 11 23 11 15 -1 15 -2 -2
-15z m291 -11 l27 -21 -17 -54 c-9 -30 -16 -77 -16 -105 1 -28 -3 -60 -9 -71
-6 -11 -8 -24 -4 -28 4 -5 1 -5 -6 -1 -7 4 -25 -2 -41 -13 -16 -12 -32 -21
-35 -21 -8 0 -106 -71 -106 -77 0 -3 7 -2 16 1 9 3 12 2 9 -5 -4 -5 -12 -8
-18 -6 -7 2 -24 0 -39 -4 -16 -4 -30 -3 -34 2 -4 6 -12 4 -23 -5 -9 -8 -29
-19 -44 -25 -30 -12 -130 -25 -162 -21 -11 1 -29 1 -40 1 -114 -7 -235 11
-235 35 0 8 -5 14 -11 14 -5 0 -7 5 -3 12 5 8 2 9 -12 4 -43 -18 -55 -17 -87
7 -18 13 -39 37 -47 53 -8 16 -21 37 -29 47 -12 15 -12 19 4 37 10 11 15 20
11 20 -4 0 0 10 8 21 8 12 12 27 10 33 -6 17 37 18 62 1 12 -8 32 -30 44 -50
19 -32 25 -46 30 -80 1 -5 9 22 19 61 11 44 27 81 42 96 13 14 30 34 37 44 7
11 10 13 7 7 -3 -7 -3 -13 2 -13 13 0 30 14 36 30 4 12 6 11 6 -2 1 -21 17
-24 24 -5 2 7 8 8 13 3 5 -5 4 -11 -3 -13 -18 -6 -16 -32 2 -39 8 -4 15 -13
15 -21 0 -13 -2 -13 -17 -2 -16 13 -17 12 -4 -4 8 -10 23 -16 34 -15 13 2 21
-3 23 -15 1 -11 6 -22 10 -25 4 -4 5 -1 2 7 -2 8 7 25 20 38 18 18 23 32 21
64 -3 34 0 42 23 53 15 8 29 12 32 9 3 -3 11 -1 18 5 23 19 87 25 105 11 13
-11 17 -12 21 -1 3 10 8 9 23 -4 18 -16 19 -16 19 1 0 10 5 15 14 12 7 -3 23
1 35 10 23 16 71 11 71 -7 0 -6 5 -10 11 -10 6 0 9 7 6 15 -8 20 11 29 29 14
12 -10 13 -9 8 5 -5 14 -1 16 30 14 20 -1 48 -12 63 -24z m-833 -23 c3 -5 -1
-11 -9 -14 -9 -4 -12 -1 -8 9 6 16 10 17 17 5z m909 -16 c-3 -9 -8 -14 -10
-11 -3 3 -2 9 2 15 9 16 15 13 8 -4z m-893 -15 c0 -5 -5 -10 -11 -10 -5 0 -7
5 -4 10 3 6 8 10 11 10 2 0 4 -4 4 -10z m281 -7 c13 -16 12 -17 -3 -4 -10 7
-18 15 -18 17 0 8 8 3 21 -13z m-42 -44 c-10 -6 -4 -9 17 -9 19 0 34 -6 38
-15 5 -13 2 -14 -15 -4 -14 7 -19 7 -15 0 4 -5 -3 -15 -15 -21 -17 -10 -20 -9
-17 2 3 7 -2 18 -11 25 -14 10 -14 13 4 31 11 10 22 15 24 9 2 -5 -3 -13 -10
-18z m-1636 -3 c3 -8 0 -17 -8 -20 -14 -5 -28 17 -18 28 10 10 21 7 26 -8z
m1377 -7 c0 -6 -4 -7 -10 -4 -5 3 -10 11 -10 16 0 6 5 7 10 4 6 -3 10 -11 10
-16z m82 -5 c-7 -12 -11 -13 -17 -4 -4 7 -2 16 6 21 18 11 23 4 11 -17z m814
-18 c-3 -12 -18 -28 -32 -35 -26 -12 -27 -12 -12 11 8 13 21 33 29 46 16 25
24 13 15 -22z m-1099 -23 c18 -21 33 -44 33 -50 0 -7 4 -13 9 -13 17 0 19 -26
4 -63 -8 -20 -19 -37 -23 -37 -15 0 -80 70 -90 96 -16 42 -12 92 8 97 9 3 19
5 21 6 2 0 19 -16 38 -36z m218 16 c-5 -15 -4 -19 4 -15 6 4 11 2 11 -4 0 -6
5 -8 10 -5 6 4 8 15 5 26 -8 23 10 26 19 2 11 -28 -38 -49 -62 -26 -11 10 -11
15 0 27 18 21 20 20 13 -5z m284 -20 c-16 -10 -23 -4 -14 10 3 6 11 8 17 5 6
-4 5 -9 -3 -15z m-1665 -21 c-3 -4 0 -8 6 -8 6 0 9 -4 5 -9 -3 -5 0 -13 5 -16
8 -5 6 -13 -5 -25 -11 -12 -13 -20 -6 -25 6 -3 11 -1 11 6 0 7 3 10 6 7 3 -4
0 -16 -6 -29 -11 -20 -13 -21 -22 -5 -6 10 -8 27 -5 38 3 11 2 31 -3 44 -11
28 -2 63 11 43 4 -7 5 -17 3 -21z m876 2 c0 -5 -4 -10 -10 -10 -5 0 -10 5 -10
10 0 6 5 10 10 10 6 0 10 -4 10 -10z m164 -125 c-4 -8 -8 -15 -10 -15 -2 0 -4
7 -4 15 0 8 4 15 10 15 5 0 7 -7 4 -15z m-84 1 c0 -3 -4 -8 -10 -11 -5 -3 -10
-1 -10 4 0 6 5 11 10 11 6 0 10 -2 10 -4z m1105 -66 c-3 -5 -11 -10 -16 -10
-6 0 -7 5 -4 10 3 6 11 10 16 10 6 0 7 -4 4 -10z m-675 -50 c8 -5 11 -10 5
-10 -5 0 -17 5 -25 10 -8 5 -10 10 -5 10 6 0 17 -5 25 -10z m100 -50 c0 -5 -2
-10 -4 -10 -3 0 -8 5 -11 10 -3 6 -1 10 4 10 6 0 11 -4 11 -10z m43 -7 c-7 -2
-19 -2 -25 0 -7 3 -2 5 12 5 14 0 19 -2 13 -5z m-492 -160 c13 -16 12 -17 -3
-4 -17 13 -22 21 -14 21 2 0 10 -8 17 -17z m262 4 c4 3 7 1 7 -5 0 -17 -16
-15 -31 6 -12 15 -12 16 2 5 9 -7 19 -10 22 -6z m-235 -83 c-4 -3 -12 5 -18
18 -12 22 -12 22 6 6 10 -10 15 -20 12 -24z m138 -1 c-10 -10 -19 5 -10 18 6
11 8 11 12 0 2 -7 1 -15 -2 -18z m-481 -257 c-17 -12 -45 -12 -45 1 0 3 7 3
15 -1 8 -3 15 -1 15 4 0 6 8 10 17 10 15 0 15 -2 -2 -14z m65 -11 c0 -12 -19
-12 -23 0 -4 9 -1 12 9 8 7 -3 14 -7 14 -8z m-110 -15 c0 -5 -5 -10 -11 -10
-5 0 -7 5 -4 10 3 6 8 10 11 10 2 0 4 -4 4 -10z m81 -7 c13 -16 12 -17 -3 -4
-10 7 -18 15 -18 17 0 8 8 3 21 -13z m-21 -13 c0 -5 -4 -10 -10 -10 -5 0 -10
5 -10 10 0 6 5 10 10 10 6 0 10 -4 10 -10z m-1470 -214 c0 -3 -4 -8 -10 -11
-5 -3 -10 -1 -10 4 0 6 5 11 10 11 6 0 10 -2 10 -4z m2065 -524 c-3 -3 -11 0
-18 7 -9 10 -8 11 6 5 10 -3 15 -9 12 -12z m-137 -126 c-7 -8 -15 -12 -17 -11
-5 6 10 25 20 25 5 0 4 -6 -3 -14z m156 -15 c4 -5 -3 -7 -14 -4 -23 6 -26 13
-6 13 8 0 17 -4 20 -9z m2569 -2936 c-3 -9 -8 -14 -10 -11 -3 3 -2 9 2 15 9
16 15 13 8 -4z"/>
<path d="M6607 8983 c-4 -3 -7 -11 -7 -17 0 -6 5 -5 12 2 6 6 9 14 7 17 -3 3
-9 2 -12 -2z"/>
<path d="M5542 4964 c2 -12 -2 -18 -10 -16 -8 1 -11 -2 -7 -7 8 -14 35 -2 35
14 0 8 -5 17 -11 20 -6 4 -9 0 -7 -11z"/>
<path d="M7286 9015 c-9 -26 -7 -32 5 -12 6 10 9 21 6 23 -2 3 -7 -2 -11 -11z"/>
<path d="M7241 8955 c0 -12 -6 -26 -12 -32 -6 -6 -9 -17 -7 -25 7 -21 30 29
25 55 -4 20 -4 21 -6 2z"/>
<path d="M6506 8912 c-3 -5 1 -9 9 -9 8 0 12 4 9 9 -3 4 -7 8 -9 8 -2 0 -6 -4
-9 -8z"/>
<path d="M7169 8843 c-18 -20 -25 -31 -14 -23 21 15 55 50 55 57 0 8 -8 1 -41
-34z"/>
<path d="M6976 8853 c-6 -14 -5 -15 5 -6 7 7 10 15 7 18 -3 3 -9 -2 -12 -12z"/>
<path d="M6389 8843 c-13 -15 -12 -15 9 -4 23 12 28 21 13 21 -5 0 -15 -7 -22
-17z"/>
<path d="M7127 8853 c-4 -3 -7 -11 -7 -17 0 -6 5 -5 12 2 6 6 9 14 7 17 -3 3
-9 2 -12 -2z"/>
<path d="M6170 8805 c-7 -8 -8 -15 -2 -15 5 0 15 7 22 15 7 8 8 15 2 15 -5 0
-15 -7 -22 -15z"/>
<path d="M6106 8769 c-21 -16 -34 -29 -28 -29 7 0 26 13 44 30 42 37 34 37
-16 -1z"/>
<path d="M6625 8790 c-3 -6 1 -7 9 -4 18 7 21 14 7 14 -6 0 -13 -4 -16 -10z"/>
<path d="M6919 8783 c-13 -16 -12 -17 4 -4 9 7 17 15 17 17 0 8 -8 3 -21 -13z"/>
<path d="M6809 8773 c-13 -16 -12 -17 4 -4 9 7 17 15 17 17 0 8 -8 3 -21 -13z"/>
<path d="M6050 8770 c-8 -5 -10 -10 -5 -10 6 0 17 5 25 10 8 5 11 10 5 10 -5
0 -17 -5 -25 -10z"/>
<path d="M6040 8729 c0 -5 5 -7 10 -4 6 3 10 8 10 11 0 2 -4 4 -10 4 -5 0 -10
-5 -10 -11z"/>
<path d="M5974 8708 l-19 -23 23 19 c21 18 27 26 19 26 -2 0 -12 -10 -23 -22z"/>
<path d="M6909 8663 l-34 -38 38 34 c41 38 50 32 15 -8 l-23 -26 23 20 c13 11
28 28 33 37 18 33 -15 20 -52 -19z"/>
<path d="M6030 8654 l-25 -15 25 7 c14 3 29 10 35 15 15 14 -7 10 -35 -7z"/>
<path d="M5970 8630 c-8 -5 -10 -10 -5 -10 6 0 17 5 25 10 8 5 11 10 5 10 -5
0 -17 -5 -25 -10z"/>
<path d="M5810 8615 c-7 -9 -8 -15 -2 -15 5 0 12 7 16 15 3 8 4 15 2 15 -2 0
-9 -7 -16 -15z"/>
<path d="M5655 8595 c-22 -13 -37 -25 -33 -25 9 0 78 41 78 46 0 6 -3 5 -45
-21z"/>
<path d="M5765 8600 c-3 -5 -2 -10 4 -10 5 0 13 5 16 10 3 6 2 10 -4 10 -5 0
-13 -4 -16 -10z"/>
<path d="M6759 8553 c-13 -16 -12 -17 4 -4 9 7 17 15 17 17 0 8 -8 3 -21 -13z"/>
<path d="M5759 8528 c-7 -13 -25 -41 -41 -63 l-30 -40 32 35 c31 34 65 90 56
90 -3 0 -11 -10 -17 -22z"/>
<path d="M5330 8490 c-9 -6 -10 -10 -3 -10 6 0 15 5 18 10 8 12 4 12 -15 0z"/>
<path d="M4631 8354 c0 -11 3 -14 6 -6 3 7 2 16 -1 19 -3 4 -6 -2 -5 -13z"/>
<path d="M4700 8359 c0 -5 5 -7 10 -4 6 3 10 8 10 11 0 2 -4 4 -10 4 -5 0 -10
-5 -10 -11z"/>
<path d="M4484 8319 c-19 -22 -19 -22 4 -8 12 8 22 17 22 21 0 12 -6 9 -26
-13z"/>
<path d="M4605 8322 c-5 -4 -11 -16 -12 -27 -1 -20 -1 -20 13 -1 20 28 20 43
-1 28z"/>
<path d="M4626 8295 c-9 -14 -23 -25 -31 -25 -8 0 -15 -4 -15 -9 0 -18 42 -7
53 14 11 20 18 45 12 45 -1 0 -10 -11 -19 -25z"/>
<path d="M4550 8269 c0 -5 5 -7 10 -4 6 3 10 8 10 11 0 2 -4 4 -10 4 -5 0 -10
-5 -10 -11z"/>
<path d="M4680 8260 c-9 -6 -10 -10 -3 -10 6 0 15 5 18 10 8 12 4 12 -15 0z"/>
<path d="M4435 8250 c-3 -5 -1 -10 4 -10 6 0 11 5 11 10 0 6 -2 10 -4 10 -3 0
-8 -4 -11 -10z"/>
<path d="M7571 8194 c0 -11 3 -14 6 -6 3 7 2 16 -1 19 -3 4 -6 -2 -5 -13z"/>
<path d="M4709 7593 c-13 -16 -12 -17 4 -4 9 7 17 15 17 17 0 8 -8 3 -21 -13z"/>
<path d="M4660 7529 c0 -5 5 -7 10 -4 6 3 10 8 10 11 0 2 -4 4 -10 4 -5 0 -10
-5 -10 -11z"/>
<path d="M4794 7445 c-18 -13 -18 -14 4 -8 12 3 25 9 28 14 8 14 -10 11 -32
-6z"/>
<path d="M6569 7431 c9 -6 2 -11 -23 -15 -45 -9 -47 -26 -3 -27 27 -2 28 -2 7
-6 -14 -3 -32 -10 -40 -17 -8 -7 -28 -18 -45 -25 -27 -11 -28 -14 -11 -23 13
-7 26 -7 42 1 13 6 24 7 24 2 0 -5 -15 -16 -33 -24 -18 -9 -42 -25 -52 -37
-20 -22 -30 -54 -14 -44 5 3 7 9 4 13 -2 5 7 19 20 31 14 13 25 18 25 11 0 -9
5 -9 20 -1 11 6 20 8 20 6 0 -3 -13 -12 -30 -21 -16 -9 -30 -21 -30 -27 0 -9
3 -9 12 0 17 17 33 15 18 -3 -8 -9 -9 -15 -2 -15 6 0 14 5 17 10 4 6 10 8 15
5 5 -3 11 -1 15 5 4 6 11 7 17 4 6 -4 5 -10 -3 -15 -22 -14 29 -11 54 3 12 7
28 13 35 14 8 1 23 11 34 20 11 11 37 19 60 20 25 1 35 -2 26 -7 -7 -5 -24 -9
-36 -9 -13 0 -37 -9 -53 -21 -16 -11 -35 -17 -41 -13 -10 6 -10 4 0 -7 10 -11
17 -10 42 4 17 10 30 14 30 9 0 -6 10 -8 22 -4 14 3 19 2 14 -6 -4 -7 -5 -12
-3 -12 8 0 72 22 102 35 36 15 175 29 175 17 0 -4 14 -7 30 -6 17 1 32 -2 35
-7 3 -4 12 -6 21 -2 8 3 22 -1 32 -10 9 -8 28 -18 42 -21 24 -6 24 -6 5 8 -11
8 -29 23 -40 32 -17 14 -16 14 10 -1 17 -9 37 -24 45 -34 9 -9 27 -25 40 -36
22 -18 23 -18 10 -1 -14 18 -13 18 10 11 14 -4 34 -16 45 -27 l20 -21 -20 7
c-17 5 -16 2 5 -16 14 -13 37 -31 50 -41 24 -17 24 -17 -9 -1 l-33 16 18 -25
c11 -14 22 -23 25 -21 9 5 69 -16 69 -25 0 -8 -64 -5 -90 4 -9 3 -8 -1 4 -10
11 -8 26 -15 33 -15 7 0 13 -4 13 -9 0 -12 47 -20 57 -10 5 5 15 4 23 -1 12
-8 11 -10 -5 -10 -16 0 -17 -2 -6 -9 21 -13 45 10 26 25 -8 6 -11 14 -8 18 4
4 -5 2 -20 -3 -35 -14 -57 -14 -57 -1 0 5 10 9 23 7 19 -2 22 3 21 31 0 27 3
32 17 29 15 -4 16 -2 6 13 -6 10 -15 16 -19 14 -13 -8 -9 4 7 20 11 11 13 21
7 33 -5 10 -20 38 -32 63 -27 53 -50 81 -60 75 -5 -3 -11 0 -13 5 -3 6 -4 5
-2 -2 1 -7 7 -12 12 -11 5 1 20 -17 31 -40 l22 -42 -25 30 c-19 23 -23 25 -19
9 3 -12 21 -39 40 -60 36 -42 39 -50 25 -59 -5 -3 -13 5 -16 17 -4 13 -15 32
-25 43 -10 11 -30 45 -44 76 -14 31 -33 62 -42 70 -10 8 -4 -10 15 -44 45 -81
31 -84 -16 -3 -38 65 -68 93 -38 37 11 -23 12 -30 2 -34 -8 -3 -4 -14 13 -33
l25 -29 -28 24 c-15 14 -26 29 -25 35 0 6 -2 19 -7 29 -6 15 -10 16 -16 5 -7
-10 -9 -10 -9 3 0 21 -45 62 -72 66 -20 3 -21 2 -5 -15 9 -10 17 -23 17 -28 0
-5 -4 -4 -8 1 -4 6 -18 19 -32 30 -19 15 -22 16 -11 3 10 -14 11 -18 1 -18
-10 0 -9 -4 1 -17 16 -21 -12 0 -76 57 -22 19 -32 25 -22 14 15 -18 15 -23 4
-27 -8 -3 -20 -1 -28 5 -11 8 -10 9 4 4 24 -8 21 1 -4 15 -17 9 -20 8 -14 -2
6 -9 3 -11 -11 -5 -12 4 -8 -3 11 -19 l30 -25 -58 26 c-43 19 -62 23 -70 15
-6 -6 -18 -11 -26 -10 -11 0 -12 2 -3 6 22 9 12 20 -18 18 -16 -1 -27 2 -24 7
7 11 -58 0 -70 -13 -6 -5 -15 -9 -20 -9 -6 0 -4 5 4 10 11 7 6 10 -20 9 -19
-1 -57 1 -85 4 -28 4 -44 3 -36 -2z m621 -76 c7 -8 8 -15 2 -15 -5 0 -15 7
-22 15 -7 8 -8 15 -2 15 5 0 15 -7 22 -15z m-10 -89 c0 -9 -41 8 -52 22 -11
13 -8 12 20 -2 17 -9 32 -18 32 -20z m-560 0 c0 -2 -9 -6 -20 -9 -11 -3 -18
-1 -14 4 5 9 34 13 34 5z m130 -26 c0 -5 -2 -10 -4 -10 -3 0 -8 5 -11 10 -3 6
-1 10 4 10 6 0 11 -4 11 -10z m510 -5 c0 4 7 2 15 -5 8 -7 15 -9 15 -5 0 4 16
-12 35 -35 56 -68 43 -61 -46 22 -11 10 -19 12 -21 6 -5 -13 -48 -1 -48 14 0
6 7 5 17 -3 15 -12 16 -12 10 5 -6 16 -5 17 8 6 8 -7 15 -9 15 -5z m155 -165
c3 -5 1 -10 -4 -10 -6 0 -11 5 -11 10 0 6 2 10 4 10 3 0 8 -4 11 -10z"/>
<path d="M6433 7394 c0 -10 9 -12 31 -8 36 6 47 14 20 15 -10 0 -26 2 -35 4
-9 1 -16 -3 -16 -11z"/>
<path d="M7060 7396 c0 -2 8 -10 18 -17 15 -13 16 -12 3 4 -13 16 -21 21 -21
13z"/>
<path d="M6410 7378 c15 -18 12 -25 -10 -31 -11 -3 -20 -10 -20 -16 0 -8 6 -9
19 -1 30 15 35 30 17 46 -9 8 -11 9 -6 2z"/>
<path d="M6475 7370 c-4 -6 -11 -8 -16 -5 -5 4 -9 1 -9 -4 0 -15 13 -14 36 4
10 8 14 15 7 15 -6 0 -15 -5 -18 -10z"/>
<path d="M6233 7326 c17 -25 38 -47 45 -50 8 -4 -5 16 -28 44 -52 62 -61 65
-17 6z"/>
<path d="M6379 7293 c-36 -43 -40 -55 -9 -26 19 18 32 35 29 38 -3 3 -12 -3
-20 -12z"/>
<path d="M6406 7270 c-32 -36 -42 -50 -33 -50 2 0 23 20 47 45 24 25 39 45 33
45 -6 0 -27 -18 -47 -40z"/>
<path d="M6296 7233 c-6 -14 -5 -15 5 -6 7 7 10 15 7 18 -3 3 -9 -2 -12 -12z"/>
<path d="M6875 7240 c-13 -6 -15 -9 -5 -9 8 0 22 4 30 9 18 12 2 12 -25 0z"/>
<path d="M6190 7236 c0 -2 8 -10 18 -17 15 -13 16 -12 3 4 -13 16 -21 21 -21
13z"/>
<path d="M6604 7088 c-3 -4 -17 -8 -32 -7 -15 1 -40 -2 -56 -6 -23 -6 -27 -5
-21 5 12 20 -17 0 -34 -23 -7 -10 -19 -16 -27 -13 -8 3 -24 -5 -35 -17 -12
-12 -18 -15 -14 -7 6 12 5 12 -5 3 -7 -6 -19 -9 -26 -6 -8 3 -17 -2 -20 -11
-3 -9 -10 -13 -15 -10 -5 3 -12 -2 -15 -11 -4 -11 -13 -14 -28 -9 -17 5 -19 4
-8 -7 17 -18 15 -27 -8 -34 -11 -4 -18 -11 -15 -16 4 -5 1 -9 -6 -9 -7 0 -9
-3 -6 -6 4 -4 13 -1 22 6 19 16 20 2 1 -19 -19 -22 -31 -87 -13 -73 17 14 42
-1 32 -19 -6 -11 -5 -12 6 -1 27 25 31 11 5 -22 -14 -19 -26 -38 -26 -42 0
-14 52 -54 69 -54 11 0 21 -7 25 -15 3 -8 12 -12 20 -9 8 3 17 0 21 -5 3 -6
11 -9 16 -6 5 4 9 2 9 -4 0 -6 7 -7 17 -4 11 4 14 3 9 -5 -5 -8 0 -11 15 -9
12 2 44 -5 71 -15 60 -22 75 -23 58 -3 -7 8 -25 15 -40 15 -37 0 -61 10 -54
21 3 5 -2 9 -10 9 -18 0 -32 38 -18 52 7 7 20 2 41 -13 29 -22 32 -22 48 -6
12 12 13 17 5 17 -7 0 -10 5 -7 10 10 17 -7 11 -22 -7 -13 -16 -13 -16 -3 5
11 24 25 28 35 12 8 -12 45 -13 45 -1 0 5 -10 16 -22 25 -13 9 -17 14 -10 10
42 -20 145 -6 156 23 6 14 4 14 -10 2 -15 -12 -17 -12 -12 1 3 8 13 15 24 15
10 1 24 4 31 8 6 4 14 1 17 -5 3 -10 8 -8 16 4 9 15 14 16 31 5 16 -10 21 -9
29 3 8 13 11 12 24 -5 15 -20 15 -20 16 2 0 19 5 21 51 20 42 0 53 -4 57 -19
2 -11 10 -17 17 -14 8 3 16 -2 19 -10 3 -8 14 -14 25 -14 11 0 22 -4 26 -10 3
-5 12 -7 20 -4 9 4 19 -4 26 -20 9 -18 18 -25 30 -21 9 3 20 1 24 -5 4 -6 14
-9 23 -5 9 3 13 3 9 -1 -4 -4 23 -18 59 -30 36 -13 80 -32 98 -44 41 -25 47
-25 43 0 -4 24 -27 51 -27 32 0 -7 5 -12 11 -12 5 0 7 -5 4 -11 -5 -7 -12 -3
-21 9 -7 11 -33 25 -58 31 -24 6 -65 28 -89 48 -56 47 -70 73 -23 44 18 -12
44 -21 57 -20 23 1 23 1 -3 12 -16 6 -28 14 -28 19 0 4 -10 20 -22 34 -13 14
-23 31 -24 37 -2 23 -33 82 -56 108 -28 32 -139 82 -228 102 -105 25 -307 40
-316 25z m322 -49 c32 -13 39 -16 54 -18 5 0 7 -8 3 -17 -5 -13 -2 -15 15 -9
13 4 22 2 22 -4 0 -6 7 -11 15 -11 18 0 19 -9 4 -30 -9 -13 -10 -13 -6 1 4 12
0 15 -19 11 -13 -2 -30 0 -37 6 -6 5 -23 12 -37 14 -14 1 -27 6 -30 10 -6 8
-71 20 -102 20 -10 -1 -18 3 -18 8 0 5 -12 8 -27 8 -16 0 -39 4 -52 9 l-25 10
28 7 c18 4 34 2 44 -6 10 -9 13 -9 9 -1 -15 25 92 19 159 -8z m-170 -106 c5 3
15 -1 21 -8 10 -11 10 -17 -3 -29 -8 -9 -12 -16 -7 -16 19 -1 -24 -20 -44 -20
-20 0 -23 5 -23 41 0 22 4 38 9 34 5 -3 13 0 17 6 5 8 9 8 14 -1 4 -7 12 -10
16 -7z m157 -53 c-2 -3 -11 4 -18 15 -8 11 -19 25 -24 31 -5 7 -7 15 -4 18 7
7 53 -57 46 -64z m-293 50 c0 -5 -4 -10 -9 -10 -6 0 -13 5 -16 10 -3 6 1 10 9
10 9 0 16 -4 16 -10z m245 -20 c10 -11 14 -20 9 -20 -5 0 -15 9 -22 20 -7 11
-11 20 -9 20 2 0 12 -9 22 -20z m-6 -24 l22 -23 -32 -7 c-18 -3 -33 -5 -35 -4
-5 6 9 58 15 58 4 0 18 -11 30 -24z m209 -91 c-3 -3 -9 2 -12 12 -6 14 -5 15
5 6 7 -7 10 -15 7 -18z m-424 -6 c-32 -13 -50 -9 -24 5 14 7 29 10 34 8 5 -3
1 -9 -10 -13z m53 -9 c1 -11 -2 -18 -8 -15 -11 7 -12 35 -1 35 4 0 8 -9 9 -20z
m-390 -28 c-19 -21 -22 -37 -5 -26 7 4 8 3 4 -5 -6 -9 -11 -9 -22 0 -11 9 -10
14 9 30 28 24 35 24 14 1z m358 8 c3 -5 1 -10 -4 -10 -6 0 -11 5 -11 10 0 6 2
10 4 10 3 0 8 -4 11 -10z m-205 -54 c0 -3 -7 -3 -15 0 -8 4 -15 13 -15 21 0
12 2 12 15 -1 8 -8 15 -17 15 -20z"/>
<path d="M6845 7040 c-3 -5 -1 -10 4 -10 6 0 11 5 11 10 0 6 -2 10 -4 10 -3 0
-8 -4 -11 -10z"/>
<path d="M6440 7059 c0 -5 5 -7 10 -4 6 3 10 8 10 11 0 2 -4 4 -10 4 -5 0 -10
-5 -10 -11z"/>
<path d="M6970 6810 c0 -6 -4 -8 -10 -5 -16 10 -11 -1 7 -16 9 -8 14 -9 10 -2
-4 6 -2 13 5 15 9 3 9 6 0 12 -7 4 -12 2 -12 -4z"/>
<path d="M6800 6776 c0 -2 7 -9 15 -16 13 -11 14 -10 9 4 -5 14 -24 23 -24 12z"/>
<path d="M6478 6673 c7 -3 16 -2 19 1 4 3 -2 6 -13 5 -11 0 -14 -3 -6 -6z"/>
<path d="M7772 6640 c0 -14 2 -19 5 -12 2 6 2 18 0 25 -3 6 -5 1 -5 -13z"/>
<path d="M5036 6538 c-8 -12 -12 -26 -8 -32 4 -7 8 -3 10 9 2 11 9 26 14 33 6
6 8 12 5 12 -3 0 -13 -10 -21 -22z"/>
<path d="M4955 6530 c-3 -5 -1 -10 4 -10 6 0 11 5 11 10 0 6 -2 10 -4 10 -3 0
-8 -4 -11 -10z"/>
<path d="M4160 6505 c-8 -9 -8 -15 -2 -15 12 0 26 19 19 26 -2 2 -10 -2 -17
-11z"/>
<path d="M4810 6490 c-9 -6 -10 -10 -3 -10 6 0 15 5 18 10 8 12 4 12 -15 0z"/>
<path d="M4760 6440 c0 -5 5 -10 11 -10 5 0 7 5 4 10 -3 6 -8 10 -11 10 -2 0
-4 -4 -4 -10z"/>
<path d="M4237 6330 c-3 -11 -2 -22 2 -24 4 -3 8 6 9 20 2 29 -4 31 -11 4z"/>
<path d="M7703 6255 c0 -22 2 -30 4 -17 2 12 2 30 0 40 -3 9 -5 -1 -4 -23z"/>
<path d="M4210 6242 c0 -4 4 -13 9 -20 7 -11 9 -11 14 1 3 9 -1 18 -9 21 -8 3
-14 2 -14 -2z"/>
<path d="M4337 6163 c-4 -3 -7 -11 -7 -17 0 -6 5 -5 12 2 6 6 9 14 7 17 -3 3
-9 2 -12 -2z"/>
<path d="M6356 6031 c-2 -4 -6 -23 -10 -43 -5 -27 -3 -38 5 -38 7 0 10 -2 7
-5 -3 -3 3 -36 13 -73 11 -36 19 -81 19 -99 0 -18 5 -33 11 -33 17 0 36 -24
33 -43 -1 -9 2 -15 6 -12 5 3 12 -4 15 -16 4 -11 12 -18 19 -16 7 3 19 1 27
-4 11 -7 11 -9 1 -9 -7 0 -10 -5 -7 -10 5 -8 12 -7 23 2 12 10 14 10 8 0 -7
-12 27 -66 36 -57 2 3 12 -13 22 -35 10 -22 23 -40 30 -40 18 0 47 -38 35 -46
-6 -3 15 -24 45 -47 32 -23 56 -49 56 -59 0 -17 10 -22 36 -19 31 3 81 -104
78 -169 -1 -25 -14 -79 -29 -120 -15 -41 -29 -86 -31 -100 -2 -23 -1 -23 10
-7 8 10 20 15 29 11 11 -4 21 4 32 25 8 17 20 31 25 31 6 0 10 8 10 18 0 17
60 142 60 126 1 -5 6 5 13 21 16 37 21 95 8 95 -5 0 -7 9 -4 20 3 11 1 20 -4
20 -5 0 -9 10 -10 22 -1 11 -6 24 -10 27 -4 3 -9 17 -11 30 -3 30 -21 53 -35
44 -6 -3 -7 -1 -3 5 4 6 -10 27 -31 47 -21 20 -38 39 -38 43 -1 19 -28 52 -42
52 -9 0 -13 3 -10 7 4 3 -2 13 -13 20 -14 10 -19 21 -15 34 4 10 2 19 -4 19
-10 0 -71 57 -70 66 0 3 -3 9 -7 12 -4 4 -4 1 0 -5 4 -7 3 -13 -2 -13 -6 0
-12 7 -15 15 -4 8 -15 12 -26 10 -11 -2 -20 0 -18 4 1 5 -15 25 -36 46 -29 28
-35 40 -27 50 8 9 6 14 -5 19 -9 3 -13 11 -9 18 5 8 2 9 -9 5 -9 -3 -16 -3
-16 1 5 33 -5 51 -41 71 -22 12 -40 27 -40 32 0 6 5 7 10 4 6 -3 10 -3 10 0 0
12 -25 30 -40 30 -8 0 -14 5 -13 11 2 10 -46 15 -51 5z m19 -10 c3 -5 1 -12
-5 -16 -5 -3 -10 1 -10 9 0 18 6 21 15 7z m235 -491 c0 -5 -2 -10 -4 -10 -3 0
-8 5 -11 10 -3 6 -1 10 4 10 6 0 11 -4 11 -10z"/>
<path d="M4260 5959 c0 -5 5 -7 10 -4 6 3 10 8 10 11 0 2 -4 4 -10 4 -5 0 -10
-5 -10 -11z"/>
<path d="M6115 5569 c-45 -22 -85 -56 -51 -43 11 4 21 2 27 -7 6 -10 9 -8 9
10 0 16 4 21 14 18 8 -3 17 -3 21 1 4 4 10 7 13 8 36 3 93 18 98 25 10 17 -91
8 -131 -12z"/>
<path d="M4310 5550 c0 -5 5 -10 11 -10 5 0 7 5 4 10 -3 6 -8 10 -11 10 -2 0
-4 -4 -4 -10z"/>
<path d="M4873 5533 c-7 -2 -13 -9 -13 -15 0 -7 5 -7 13 1 8 6 17 8 20 4 4 -3
7 -1 7 5 0 13 -7 14 -27 5z"/>
<path d="M4255 5520 c3 -5 8 -10 11 -10 2 0 4 5 4 10 0 6 -5 10 -11 10 -5 0
-7 -4 -4 -10z"/>
<path d="M4571 5416 c-51 -55 -64 -81 -36 -70 8 4 13 10 10 14 -3 5 9 11 26
15 18 4 28 10 23 14 -5 3 1 16 13 28 13 12 23 19 23 15 0 -4 4 0 9 8 10 15 6
30 -8 30 -5 0 -31 -24 -60 -54z"/>
<path d="M5070 5369 c0 -5 5 -7 10 -4 6 3 10 8 10 11 0 2 -4 4 -10 4 -5 0 -10
-5 -10 -11z"/>
<path d="M4940 5351 c0 -17 21 -24 33 -11 9 10 9 11 0 6 -7 -4 -13 -2 -13 3 0
6 -4 11 -10 11 -5 0 -10 -4 -10 -9z"/>
<path d="M4893 5303 c4 -3 2 -12 -4 -20 -9 -9 -8 -13 0 -13 6 0 11 -7 11 -15
0 -8 6 -12 14 -9 8 3 13 11 12 17 -6 26 -19 47 -29 47 -6 0 -7 -3 -4 -7z"/>
<path d="M4750 5270 c0 -5 5 -10 10 -10 6 0 10 5 10 10 0 6 -4 10 -10 10 -5 0
-10 -4 -10 -10z"/>
<path d="M5435 5239 c-4 -6 -4 -13 0 -17 4 -4 10 -1 12 6 3 6 10 9 15 6 7 -4
8 -2 4 4 -9 15 -23 15 -31 1z"/>
<path d="M6110 4643 c0 -14 19 -38 25 -32 8 8 -5 39 -16 39 -5 0 -9 -3 -9 -7z"/>
<path d="M5965 4600 c3 -5 11 -10 16 -10 6 0 7 5 4 10 -3 6 -11 10 -16 10 -6
0 -7 -4 -4 -10z"/>
<path d="M5518 4473 c7 -3 16 -2 19 1 4 3 -2 6 -13 5 -11 0 -14 -3 -6 -6z"/>
<path d="M5502 4436 c15 -12 25 -26 21 -30 -8 -8 1 -8 21 0 19 7 22 25 4 22
-7 -2 -12 2 -11 9 2 7 -4 10 -12 7 -8 -4 -15 -1 -15 5 0 6 -8 11 -17 11 -14 0
-12 -5 9 -24z"/>
<path d="M4651 4258 c-1 -16 4 -28 9 -28 12 0 12 8 0 35 -8 18 -9 17 -9 -7z"/>
<path d="M5526 4247 c3 -10 9 -15 12 -12 3 3 0 11 -7 18 -10 9 -11 8 -5 -6z"/>
<path d="M5508 4203 c7 -3 16 -2 19 1 4 3 -2 6 -13 5 -11 0 -14 -3 -6 -6z"/>
<path d="M4736 4142 c-3 -5 1 -9 9 -9 8 0 15 4 15 9 0 4 -4 8 -9 8 -6 0 -12
-4 -15 -8z"/>
<path d="M3280 3800 c0 -5 5 -10 10 -10 6 0 10 5 10 10 0 6 -4 10 -10 10 -5 0
-10 -4 -10 -10z"/>
<path d="M5145 3780 c3 -5 11 -10 16 -10 6 0 7 5 4 10 -3 6 -11 10 -16 10 -6
0 -7 -4 -4 -10z"/>
<path d="M5222 3428 c5 -15 28 -23 28 -10 0 5 -7 13 -16 16 -10 4 -14 1 -12
-6z"/>
<path d="M5470 3240 c0 -5 5 -10 10 -10 6 0 10 5 10 10 0 6 -4 10 -10 10 -5 0
-10 -4 -10 -10z"/>
<path d="M6055 3230 c-4 -6 -11 -7 -17 -4 -7 4 -8 2 -4 -5 6 -9 11 -9 22 0 14
11 18 19 10 19 -3 0 -8 -5 -11 -10z"/>
<path d="M6821 3217 c-17 -9 -32 -37 -56 -109 -18 -54 -42 -112 -53 -130 -11
-18 -36 -60 -56 -93 -20 -33 -60 -87 -89 -120 -29 -33 -64 -76 -77 -95 -27
-41 -25 -39 65 60 37 41 82 91 100 110 56 61 112 154 120 195 3 22 22 73 42
113 19 40 34 75 31 77 -2 2 -14 -1 -27 -8z"/>
<path d="M5960 3216 c0 -2 8 -10 18 -17 15 -13 16 -12 3 4 -13 16 -21 21 -21
13z"/>
<path d="M5500 3204 c0 -10 31 -36 37 -31 3 3 -2 13 -10 22 -16 15 -27 19 -27
9z"/>
<path d="M5730 3191 c0 -5 12 -19 28 -32 17 -14 22 -23 15 -26 -21 -7 -15 -22
6 -16 11 3 18 12 16 21 -1 10 2 25 7 34 6 14 5 16 -7 12 -8 -3 -12 -10 -9 -15
3 -5 0 -9 -5 -9 -6 0 -11 3 -11 8 0 4 -9 13 -20 20 -11 7 -20 8 -20 3z"/>
<path d="M5848 3171 c27 -26 36 -30 48 -20 11 9 12 15 3 25 -6 8 -17 14 -23
14 -6 0 -3 -7 6 -14 34 -25 5 -25 -31 1 l-36 26 33 -32z"/>
<path d="M5913 3186 c-4 -5 -1 -6 7 -1 10 6 12 4 7 -8 -8 -23 5 -22 19 1 10
15 8 18 -8 18 -11 0 -22 -5 -25 -10z"/>
<path d="M5650 3170 c0 -7 -7 -10 -16 -6 -14 5 -15 4 -5 -8 9 -11 9 -15 -1
-19 -10 -4 -10 -6 0 -6 7 -1 15 6 18 14 5 13 8 13 20 0 8 -8 22 -11 31 -8 10
4 14 2 10 -4 -4 -6 0 -14 9 -17 26 -10 32 -7 27 15 -3 11 -11 18 -18 15 -9 -3
-11 2 -7 16 3 15 1 19 -7 14 -6 -4 -9 -12 -6 -17 4 -5 1 -9 -4 -9 -6 0 -11 5
-11 12 0 6 -3 8 -7 5 -3 -4 -12 -2 -20 4 -10 9 -13 8 -13 -1z"/>
<path d="M5816 3162 c7 -4 14 -16 16 -27 5 -19 5 -19 13 -1 8 18 -7 36 -30 36
-5 0 -5 -4 1 -8z"/>
<path d="M5577 3147 c-3 -8 1 -14 8 -14 7 0 11 6 8 14 -3 7 -6 13 -8 13 -2 0
-5 -6 -8 -13z"/>
<path d="M5805 3140 c-3 -5 -1 -10 4 -10 6 0 11 5 11 10 0 6 -2 10 -4 10 -3 0
-8 -4 -11 -10z"/>
<path d="M5285 3130 c-3 -5 -1 -10 4 -10 6 0 11 5 11 10 0 6 -2 10 -4 10 -3 0
-8 -4 -11 -10z"/>
<path d="M5520 3130 c0 -5 5 -10 11 -10 5 0 7 5 4 10 -3 6 -8 10 -11 10 -2 0
-4 -4 -4 -10z"/>
<path d="M5427 3103 c3 -7 6 -13 8 -13 1 0 7 6 13 13 8 10 6 13 -7 13 -11 0
-17 -6 -14 -13z"/>
<path d="M5650 3110 c-8 -5 -10 -10 -5 -10 6 0 17 5 25 10 8 5 11 10 5 10 -5
0 -17 -5 -25 -10z"/>
<path d="M4667 3073 c3 -7 9 -13 13 -13 4 0 10 6 13 13 3 7 -3 13 -13 13 -10
0 -16 -6 -13 -13z"/>
<path d="M6406 2558 c-30 -40 -77 -102 -103 -138 -54 -72 -181 -184 -230 -202
-18 -7 -33 -15 -33 -19 0 -4 15 -18 33 -32 l34 -26 49 57 c60 68 135 169 186
249 20 32 58 86 84 121 64 86 49 78 -20 -10z"/>
<path d="M6340 2014 c-50 -35 -181 -74 -278 -81 -64 -5 -85 -10 -89 -22 -21
-62 -193 -490 -219 -546 -48 -103 -161 -377 -172 -419 -6 -20 -7 -36 -3 -36 8
0 18 -18 50 -92 23 -52 54 -178 69 -283 11 -71 14 -100 32 -325 6 -69 13 -144
16 -168 l6 -43 124 2 124 1 -29 37 c-27 34 -28 37 -13 59 13 20 13 27 3 44
-11 17 -10 22 1 29 10 7 8 9 -6 9 -15 0 -16 3 -6 15 11 13 10 14 -4 9 -12 -5
-15 -2 -10 10 3 9 10 13 15 10 5 -3 9 4 9 15 0 12 -4 21 -10 21 -5 0 -10 12
-10 26 0 14 -4 22 -10 19 -5 -3 -7 0 -4 9 9 24 34 8 139 -93 56 -53 131 -124
168 -158 l68 -62 74 0 c45 0 75 5 75 11 0 7 5 7 14 -1 11 -9 13 -6 10 18 -2
19 2 31 12 35 9 4 12 2 8 -5 -12 -21 48 -58 94 -59 26 0 41 4 40 11 -2 6 3 14
10 16 8 3 10 -1 6 -11 -5 -13 2 -16 40 -16 25 0 46 4 46 8 0 4 -31 41 -68 82
-50 53 -72 71 -83 65 -8 -4 -11 -4 -6 0 4 5 0 16 -9 26 -16 18 -13 49 5 49 14
0 116 -109 158 -170 l39 -55 87 -3 87 -3 -61 86 c-59 82 -82 107 -59 65 6 -11
9 -20 6 -20 -3 0 -29 46 -59 103 -73 136 -106 256 -117 417 -7 116 -28 210
-52 235 -6 6 -7 3 -2 -10 4 -11 5 -18 2 -15 -2 3 -25 28 -51 56 l-47 51 40 41
40 40 0 -27 c0 -15 -5 -32 -12 -39 -9 -9 -9 -15 0 -24 9 -9 15 -9 23 -1 8 8 5
46 -10 134 -20 118 -21 127 -5 216 8 52 26 124 40 161 13 37 21 52 18 35 -3
-19 -1 -33 4 -33 6 0 13 -13 17 -30 4 -16 11 -30 17 -30 6 0 9 -3 5 -6 -13
-14 79 -130 104 -131 8 0 21 -3 29 -7 25 -10 48 44 45 103 -2 34 1 49 8 44 7
-4 8 0 2 13 -4 10 -13 33 -19 49 -6 17 -21 47 -33 68 -13 21 -23 41 -23 44 0
3 -12 20 -27 38 -16 18 -48 59 -73 91 -47 60 -299 324 -309 324 -3 -1 -22 -12
-41 -26z m30 -38 c-6 -8 -18 -12 -26 -9 -19 7 -7 23 18 23 17 0 18 -3 8 -14z
m-44 -45 c-19 -21 -122 -98 -246 -184 -41 -28 -85 -52 -97 -52 -12 -1 -20 2
-17 6 8 14 203 158 236 175 18 9 45 26 60 37 14 11 31 17 36 13 5 -3 15 1 22
9 7 8 15 15 18 15 3 0 -3 -9 -12 -19z m-306 -35 c0 -2 -12 -11 -27 -20 l-28
-17 24 20 c23 21 31 25 31 17z m510 -62 c0 -2 -9 0 -20 6 -11 6 -20 13 -20 16
0 2 9 0 20 -6 11 -6 20 -13 20 -16z m4 -145 c-2 -4 -25 -20 -52 -35 -68 -40
-138 -97 -179 -146 -19 -24 -37 -45 -38 -46 -2 -2 -11 0 -20 6 -15 8 -14 13
14 43 28 30 31 31 26 11 -7 -24 -7 -24 12 -5 11 11 23 28 26 39 7 19 7 19 -8
0 -11 -14 -15 -16 -15 -5 0 21 10 31 70 76 81 61 152 96 161 81 4 -7 6 -15 3
-19z m-550 -24 c-7 -16 -24 -21 -24 -6 0 8 7 13 27 20 1 1 0 -6 -3 -14z m-44
-55 c-23 -33 -28 -34 -50 -20 -12 8 -9 15 20 45 28 29 36 32 43 20 5 -10 1
-25 -13 -45z m672 -76 c-4 -6 -29 -30 -55 -53 -39 -33 -51 -39 -62 -28 -16 14
-14 16 57 72 33 26 56 38 60 31 4 -5 4 -15 0 -22z m-732 16 c0 -5 -9 -10 -21
-10 -11 0 -17 5 -14 10 3 6 13 10 21 10 8 0 14 -4 14 -10z m-25 -30 c3 -5 1
-10 -4 -10 -6 0 -11 5 -11 10 0 6 2 10 4 10 3 0 8 -4 11 -10z m-42 -65 c-3 -9
-8 -14 -10 -11 -3 3 -2 9 2 15 9 16 15 13 8 -4z m371 -80 c-4 -8 -11 -12 -16
-9 -6 4 -5 10 3 15 19 12 19 11 13 -6z m-234 -8 c0 -2 -19 -21 -42 -42 l-43
-40 40 43 c36 39 45 47 45 39z m30 0 c0 -2 -12 -14 -27 -28 l-28 -24 24 28
c23 25 31 32 31 24z m175 -27 c3 -6 0 -13 -9 -16 -8 -3 -13 -11 -10 -17 2 -7
-52 -68 -121 -137 -92 -91 -132 -125 -150 -125 -14 -1 -25 2 -25 5 0 3 63 71
141 151 77 79 137 138 134 132 -7 -15 -4 -16 20 -7 13 5 14 8 3 15 -9 6 -9 9
-1 9 6 0 15 -5 18 -10z m-165 -33 c0 -2 -10 -12 -22 -23 l-23 -19 19 23 c18
21 26 27 26 19z m20 -42 c-24 -25 -46 -45 -49 -45 -3 0 15 20 39 45 24 25 46
45 49 45 3 0 -15 -20 -39 -45z m-10 22 c0 -2 -15 -16 -32 -33 l-33 -29 29 33
c28 30 36 37 36 29z m314 -49 c-5 -7 -2 -9 9 -5 12 4 14 2 9 -11 -7 -20 -12
-25 -122 -128 -139 -128 -199 -179 -214 -179 -7 0 -22 -7 -32 -15 -32 -24 44
59 171 186 132 132 205 194 179 152z m-4 -81 c0 -2 -17 -19 -37 -38 l-38 -34
34 38 c33 34 41 42 41 34z m90 -10 c0 -2 -12 -14 -27 -28 l-28 -24 24 28 c23
25 31 32 31 24z m10 -20 c0 -2 -12 -14 -27 -28 l-28 -24 24 28 c23 25 31 32
31 24z m-7 -39 c-35 -34 -45 -40 -55 -30 -11 11 -10 12 2 7 10 -3 29 8 50 30
19 19 36 35 39 35 3 0 -13 -19 -36 -42z m-103 29 c0 -2 -12 -14 -27 -28 l-28
-24 24 28 c23 25 31 32 31 24z m10 -20 c0 -2 -12 -14 -27 -28 l-28 -24 24 28
c23 25 31 32 31 24z m29 -9 c-2 -2 -20 -16 -39 -33 l-35 -30 34 37 c19 21 37
36 39 33 3 -3 3 -6 1 -7z m-139 -32 c0 -2 -8 -10 -17 -17 -16 -13 -17 -12 -4
4 13 16 21 21 21 13z m130 1 c0 -2 -12 -14 -27 -28 l-28 -24 24 28 c23 25 31
32 31 24z m10 -20 c0 -2 -12 -14 -27 -28 l-28 -24 24 28 c23 25 31 32 31 24z
m-120 -20 c0 -2 -10 -12 -22 -23 l-23 -19 19 23 c18 21 26 27 26 19z m40 -21
c0 -2 -8 -10 -17 -17 -16 -13 -17 -12 -4 4 13 16 21 21 21 13z m123 -83 c114
-101 185 -189 179 -220 -2 -7 1 -13 6 -13 5 0 12 -10 15 -22 4 -16 -7 -8 -36
27 -23 28 -89 98 -146 158 -85 86 -101 107 -82 107 12 0 41 -17 64 -37z m138
-60 c12 -16 12 -17 -2 -6 -9 7 -20 9 -24 5 -5 -4 -5 -1 -1 6 9 16 11 15 27 -5z
m-678 -15 c2 -13 8 -32 12 -43 5 -16 3 -15 -14 5 -25 32 -33 60 -16 60 7 0 15
-10 18 -22z m630 -92 c4 4 7 5 7 1 0 -20 -21 -11 -51 21 l-34 37 36 -33 c19
-18 38 -29 42 -26z m-690 18 c-4 -12 -1 -13 21 -3 40 18 48 2 53 -98 2 -48 8
-132 13 -186 13 -124 13 -248 0 -267 -7 -11 -10 -7 -10 17 0 18 -31 142 -70
276 -38 134 -70 248 -70 255 0 6 7 9 17 5 9 -4 14 -2 11 3 -4 5 4 10 17 10 17
1 22 -2 18 -12z m655 -45 c-7 -5 -17 -9 -23 -9 -5 0 -4 4 4 9 8 5 10 14 5 22
-6 11 -4 11 10 0 13 -11 14 -16 4 -22z m-27 -26 c13 -16 12 -17 -3 -4 -17 13
-22 21 -14 21 2 0 10 -8 17 -17z m49 7 c-8 -5 -19 -10 -25 -10 -5 0 -3 5 5 10
8 5 20 10 25 10 6 0 3 -5 -5 -10z m0 -87 c0 -8 -9 0 -50 45 l-45 47 48 -45
c26 -24 47 -45 47 -47z m51 70 c13 -16 12 -17 -3 -4 -10 7 -18 15 -18 17 0 8
8 3 21 -13z m-140 -10 c13 -16 12 -17 -3 -4 -10 7 -18 15 -18 17 0 8 8 3 21
-13z m120 0 c13 -16 12 -17 -3 -4 -17 13 -22 21 -14 21 2 0 10 -8 17 -17z m-1
-28 c19 -19 32 -35 29 -35 -3 0 -20 16 -39 35 -19 19 -32 35 -29 35 3 0 20
-16 39 -35z m-20 -10 c19 -19 32 -35 29 -35 -3 0 -20 16 -39 35 -19 19 -32 35
-29 35 3 0 20 -16 39 -35z m10 -72 c0 -8 -9 0 -50 45 l-45 47 48 -45 c26 -24
47 -45 47 -47z m-19 -15 c13 -18 17 -33 11 -48 -8 -21 -9 -21 -23 -4 -7 10 -9
15 -2 11 6 -4 15 -2 19 4 3 6 -16 34 -45 63 -28 28 -51 55 -51 59 0 11 69 -53
91 -85z m-271 30 c30 -28 74 -69 97 -91 42 -40 43 -40 58 -22 16 19 16 19 5
-2 -6 -13 -8 -24 -5 -24 3 -1 10 -2 15 -3 6 0 9 -3 8 -6 -6 -11 41 -60 105
-113 60 -49 65 -56 53 -72 -12 -17 -20 -13 -102 57 -49 41 -143 128 -209 192
-95 93 -117 119 -105 126 21 14 20 15 80 -42z m301 5 c13 -16 12 -17 -3 -4
-10 7 -18 15 -18 17 0 8 8 3 21 -13z m-91 -18 c11 -13 10 -14 -4 -9 -9 3 -16
10 -16 15 0 13 6 11 20 -6z m-55 -75 c-3 -5 -14 -10 -23 -9 -14 0 -13 2 3 9
27 11 27 11 20 0z m-136 -216 c68 -57 141 -124 135 -124 -8 0 -74 50 -114 87
-19 18 -36 30 -38 28 -2 -2 14 -19 35 -39 21 -19 33 -36 28 -36 -6 0 -58 48
-115 107 -58 60 -73 78 -35 40 99 -94 106 -84 10 15 -79 82 -79 82 -10 17 39
-37 85 -79 104 -95z m-144 76 c10 -11 16 -20 13 -20 -3 0 -13 9 -23 20 -10 11
-16 20 -13 20 3 0 13 -9 23 -20z m24 -90 c19 10 31 3 115 -72 52 -46 95 -87
95 -91 1 -12 -43 24 -114 92 -77 73 -105 89 -42 24 27 -28 44 -52 37 -55 -6
-2 19 -29 55 -61 37 -31 63 -57 58 -57 -14 0 -180 149 -258 231 -41 43 -48 54
-19 25 46 -42 54 -47 73 -36z m-29 49 c4 8 10 9 14 3 11 -18 -27 -23 -43 -5
-15 16 -15 16 2 3 15 -11 20 -11 27 -1z m216 -149 c5 0 2 4 -6 10 -8 5 -11 12
-7 16 4 4 14 1 21 -7 12 -12 12 -16 0 -27 -12 -11 -29 2 -107 79 l-92 91 91
-81 c50 -44 95 -81 100 -81z m-27 -43 c25 -23 60 -53 76 -65 17 -13 23 -20 15
-16 -23 12 -124 90 -139 108 -26 31 3 15 48 -27z m-293 -4 c-10 -10 -19 5 -10
18 6 11 8 11 12 0 2 -7 1 -15 -2 -18z m443 0 c20 -14 37 -28 39 -29 2 -1 -3
-14 -10 -29 -13 -24 -16 -25 -28 -11 -11 14 -10 16 6 10 16 -5 16 -3 -3 14
-23 20 -32 39 -13 27 6 -3 10 -2 10 2 0 5 -12 16 -27 25 -16 10 -24 18 -19 18
5 0 25 -12 45 -27z m-38 -60 c13 -17 13 -17 -6 -3 -11 8 -22 16 -24 17 -2 2 0
3 6 3 6 0 17 -8 24 -17z m169 7 c0 -5 -5 -10 -11 -10 -5 0 -7 5 -4 10 3 6 8
10 11 10 2 0 4 -4 4 -10z m-116 -49 c-2 -3 -12 3 -22 13 -16 17 -16 18 5 5 12
-7 20 -15 17 -18z"/>
<path d="M6250 1479 c0 -5 5 -7 10 -4 6 3 10 8 10 11 0 2 -4 4 -10 4 -5 0 -10
-5 -10 -11z"/>
<path d="M6080 247 c0 -9 84 -86 89 -82 2 2 -3 10 -11 17 -8 7 -28 26 -46 42
-18 17 -32 27 -32 23z"/>
<path d="M6405 80 c3 -5 11 -10 16 -10 6 0 7 5 4 10 -3 6 -11 10 -16 10 -6 0
-7 -4 -4 -10z"/>
<path d="M7900 148 c25 -24 38 -29 25 -9 -3 6 -16 16 -28 22 -20 11 -20 9 3
-13z"/>
<path d="M5961 81 c-8 -5 -9 -11 -3 -15 5 -3 12 1 16 9 6 17 6 18 -13 6z"/>
<path d="M6492 14 c10 -10 20 -15 24 -12 3 4 -5 12 -18 18 -22 12 -22 12 -6
-6z"/>
</g>
</svg>
